<?xml version="1.0" encoding="UTF-8"?>
<svg id="Layer_2" data-name="Layer 2" xmlns="http://www.w3.org/2000/svg" viewBox="0 0 385.4984 535.9501">
  <defs>
    <style>
      .cls-1 {
        fill: #fa3636;
      }

      .cls-2 {
        fill: #fff;
      }
    </style>
  </defs>
  <g id="katman_1" data-name="katman 1">
    <g id="Zmxquo">
      <g>
        <path d="m272.6432,535.9501c-15.8528-.5818-33.2127-.4133-50.4331-2.8056-2.8577-.3971-5.7066-.9192-8.5205-1.5564-6.5264-1.4779-13.0288-3.0622-19.5411-4.6022-5.2996-1.2534-7.1427-4.8342-5.1014-9.9318,3.4621-8.645,9.5991-14.2123,18.7244-16.4496,6.1911-1.5179,12.155-3.983,18.6132-4.3903.742-.0469,1.5069-.2812,2.1898-.5877,1.1091-.4978,2.2918-1.068,2.3649-2.502.077-1.5092-1.1587-2.0538-2.2638-2.5263-1.1121-.4755-2.298-.7916-3.4691-1.114-19.0659-5.2478-33.8512-16.1388-43.8324-33.3182-1.1417-1.9652-1.959-4.1169-2.9663-6.1626-1.5903-3.2298-2.385-3.522-5.6983-2.5853-6.7291,1.9025-13.3957,3.9999-20.0725,6.076-9.1841,2.8558-18.4995,3.2752-27.8656.463-4.668-1.4015-9.4734-2.2398-14.3886-2.1989-1.071.0089-2.3179.0796-2.7185-1.1543-.4123-1.2699.7112-1.9089,1.5943-2.4602,2.5234-1.5754,4.2653-3.8483,5.898-6.2601,2.7697-4.0914,6.6854-6.2718,11.6053-6.0492,9.2647.4191,18.0943-1.937,27.0162-3.8043,3.0642-.6413,4.8377-2.3652,5.2281-5.4832.4392-3.5077.5353-6.96-1.0324-10.2888-1.8529-3.9343-2.4898-7.9688-1.7202-12.3882,1.8514-10.6305,3.4617-21.3057,4.9958-31.9878.7558-5.2625-.5469-6.9391-5.6551-7.9086-7.0557-1.339-14.1442-2.0804-21.3118-.8023-4.6566.8303-9.3467.8914-14.0809.8914-7.5957,0-15.1891.6384-22.7878.7949-6.9223.1426-13.5519-1.765-20.1642-3.513-2.8302-.7482-5.0588-2.7432-7.3103-4.5527-1.6704-1.3425-3.3933-2.6151-5.3763-3.4101-3.1302-1.2551-4.8278-.4371-5.9058,2.7943-.7697,2.3073-1.4901,4.6406-2.0565,7.0044-1.5944,6.6539-5.724,10.565-12.4687,11.5811-7.7342,1.1651-15.1437.8964-21.5135-4.6504-6.6069-5.7533-8.1954-12.8794-6.1922-21.0595.6851-2.7978,1.8235-5.4822,2.57-8.2679.9753-3.6399-.1216-6.6399-3.3391-8.6813-3.2232-2.0451-6.2175-4.3887-9.1171-6.8464-4.7118-3.9937-7.3001-9.0567-6.3419-15.2981,1.2884-8.3923,3.8834-16.2979,10.5151-22.1931,2.8952-2.5737,5.9422-4.5244,10.2641-3.6645,2.5184.501,5.0777-.1902,6.9522-2.4888,5.4737-6.7123,12.831-7.6469,20.7084-6.1983,2.8372.5218,5.641,1.1519,8.5243,1.4373,9.034.8943,15.0326,13.2485,10.2182,20.9785-.964,1.5477-2.0134,3.0429-2.9539,4.6042-.4003.6645-.5189,1.4405.1217,2.0901.4813.4881,1.1461.5652,1.6794.2804,2.4969-1.3332,5.2879-1.3096,7.9617-1.8121,2.3803-.4474,4.1242-1.5755,5.3414-3.7933,2.5424-4.6322,6.6587-6.2586,11.8462-6.0931,5.969.1904,11.8696,1.0982,17.6136,2.3834,14.8513,3.3229,29.6291,2.0859,44.4493.2825,6.0249-.7332,11.974-1.9133,18.1293-.8837,3.7118.6208,7.4931-.7952,11.3425-.0473,1.997.388,2.7805-1.124,2.2531-4.3689-.7308-4.4965.85-8.0335,3.9284-11.1102.1074-.1073.2315-.1978.3398-.3042,2.411-2.367,2.537-3.0106.3788-5.6582-4.1945-5.1457-9.7304-8.311-16.1076-9.7334-7.5659-1.6875-15.1854-3.2763-22.8645-4.2642-5.1599-.6638-10.1693-1.7182-15.1782-3.0041-5.5609-1.4276-6.1986-1.2129-9.395,3.6496-2.5132,3.8233-5.2075,7.4858-8.1469,10.9874-6.9039,8.2246-15.8935,10.5231-26.1998,9.6799-8.855-.7244-15.9021-5.6553-23.5398-9.3346-8.0999-3.902-14.059-9.939-19.0859-17.1844-2.4237-3.4933-5.2703-6.6902-7.7921-10.1193-5.3723-7.3052-8.4787-15.4228-8.3863-24.5991.0327-3.2461-.5662-6.331-1.814-9.3324-1.578-3.7957-2.949-7.6667-3.4468-11.785-.0726-.6006-.1029-1.3196-.752-1.518-.9237-.2823-1.3467.4748-1.7091,1.1478-.8191,1.5213-.8129,3.2091-1.0087,4.8728-.5886,5.0002-3.07,8.7972-7.3906,11.4361-2.3494,1.435-4.4789,1.3476-6.7942-.1589-8.36-5.4395-9.7212-17.6493-1.7557-23.7203,3.5706-2.7214,4.9526-7.2189,7.7062-10.6606,2.1841-2.7299,4.3008-5.5062,6.6448-8.108,7.4114-8.2267,12.9268-17.5261,16.8411-27.9419,4.2756-11.3773,9.0569-22.5805,15.0526-33.199,1.0578-1.8735,1.9485-3.7507,2.4208-5.8645,4.5865-20.5279,14.9112-37.9851,28.1555-54.0985,11.1895-13.6134,25.3608-23.1495,40.6786-31.0439,7.9029-4.0729,16.6132-6.7304,25.3464-8.6724,5.1517-1.1456,8.7456-4.1478,12.0854-7.6673,2.7313-2.8783,5.8934-3.497,9.5405-3.0142.4514.0598.9176.1,1.3426.2478.8693.3022,1.8727.6818,1.7649,1.7734-.0826.8371-1.0197,1.0014-1.7626,1.1846-2.0653.5092-4.146.9665-6.1867,1.561-.8872.2585-1.6951.883-1.4713,1.9786.1891.9256,1.0902.8794,1.837.9935,14.9418,2.2826,29.4538,5.9702,42.9194,13.0986,1.7467.9246,3.5394,1.7683,5.3448,2.5731.7939.3539,1.7751.9602,2.4937.0351.656-.8444-.0612-1.6923-.3969-2.5245-1.6033-3.9739-5.0852-5.8974-8.4983-7.9296-1.2217-.7275-3.6412-.9167-3.113-2.6922.5726-1.9248,2.8821-1.0385,4.4542-.9847,1.8863.0645,3.4926,1.0451,4.9132,2.2158,4.2009,3.4619,7.7085,7.4035,8.2787,13.1424.287,2.8885,1.7346,4.7718,4.441,5.7667.9976.3667,1.9612.832,2.9239,1.2869,4.1093,1.9416,7.9994,1.9708,12.1842-.2701,7.6361-4.089,15.7972-5.0208,24.3563-3.281,6.6777,1.3574,12.1549,4.6404,16.9163,9.3208,1.734,1.7045,3.3552,3.5239,5.0274,5.2912,1.5194,1.6058,3.4097,2.6738,5.5498,2.9429,6.6794.8399,13.1326,2.8373,19.3643,5.0315,10.708,3.7703,21.0585,8.3219,29.7943,16.2052,6.1011,5.5056,12.0391,11.0947,17.5792,17.143,1.5564,1.6992,2.8542,3.5408,4.001,5.5256.7569,1.31,1.4581,2.771,2.5569,3.7433,3.9392,3.4857,6.0431,8.0314,7.4403,12.8738,2.695,9.3405,6.2197,18.4889,7.479,28.1882,2.1026,16.1942,1.2988,32.035-4.7634,47.5508-5.3895,13.794-13.4158,25.4302-24.479,35.2005-8.1608,7.2071-17.3758,12.3138-27.8603,14.9763-16.9787,4.3117-33.4393,10.2217-49.9762,15.8881-9.7675,3.3468-18.3312,8.8483-25.751,16.0378-1.835,1.7781-3.7335,3.6157-4.3445,6.2998-.4752,2.0875.0006,3.7759,2.2625,4.2121,6.5542,1.264,8.5913,6.0203,9.5749,11.7992.6628,3.8937,1.5789,7.7448,2.4027,11.6105.3871,1.8165,1.2903,3.2279,3.3917,2.9024,8.0687-1.2499,12.5636,3.3849,15.7349,9.7685,2.6598,5.3539,4.1539,11.1002,4.0632,17.1628-.0342,2.2817-.0079,4.5665-.1229,6.8442-.1504,2.9788.785,5.5656,2.0179,8.2753,3.6542,8.0315,6.6766,16.3144,8.216,25.0603.2373,1.3481.5427,2.687.7159,4.0431.2583,2.0218,1.2992,3.2279,3.2394,3.9582,8.8704,3.3389,13.3822,10.0452,14.5532,19.2345.2691,2.1116.4714,4.2325.6695,6.3524.2808,3.0048,1.3036,5.5847,3.856,7.4325,2.2859,1.6547,3.9049,3.9679,4.8095,6.5385,3.6986,10.5103,6.4862,21.092,5.4356,32.5392-.934,10.1771-2.118,20.229-4.9368,30.0697-1.0116,3.5316.1156,5.457,3.5637,6.7562.8498.3201,1.7474.5347,2.6394.7185,11.5748,2.384,19.9835,9.3586,26.4689,18.7828,3.0791,4.4742,4.059,9.795,3.7442,15.2477-.2661,4.6104-2.5762,7.5267-7.125,8.9066-8.4811,2.5728-17.0841,4.4438-25.9348,4.9376-17.4569.974-34.9079,2.127-53.8719,2.2552Zm106.6815-391.4372c1.8456-6.6103-3.6818-14.246-4.3864-22.6767-.2984-3.5705-2.5079-6.8188-3.5836-10.2431-2.3316-7.4231-7.0493-13.3773-11.0384-19.78-2.8306-4.5431-7.1567-7.8794-10.4989-11.9879-10.2905-12.6499-23.9876-19.8668-38.9153-25.262-1.2742-.4605-2.6343-.7749-3.9805-.9292-6.8443-.7846-7.5648.0304-6.0784,6.5749,2.2878,10.0734,2.3198,19.9221-2.909,29.258-1.2635,2.2559-2.2885,4.6539-3.6554,6.8414-2.6506,4.2419-4.8664,8.9221-9.1851,11.7889-6.8882,4.5724-13.9515,8.0696-22.7921,8.0121-14.8277-.0964-26.5603-5.4043-35.2241-17.464-2.4083-3.3523-4.5875-6.8004-5.9527-10.7338-.5966-1.7188-1.4297-3.3569-2.1822-5.0196-.7302-1.6134-2.0364-2.0924-3.7357-1.9537-1.8018.147-3.331.6461-3.851,2.583-.3138,1.169-.478,2.3808-.6686,3.5799-1.5273,9.6094-5.215,18.3374-12.6402,24.6877-13.5165,11.5598-28.8464,15.8692-46.2706,9.7519-3.6981-1.2983-6.829-3.2344-9.3683-6.2178-2.5633-3.0116-5.1704-5.99-7.8577-8.8909-2.4-2.5908-2.7125-2.6075-5.7663-.6176-9.0644,5.9066-17.3371,12.8756-25.9282,19.4171-2.7652,2.1055-3.5423,4.707-2.2188,8.0431,1.5689,3.9548,2.8891,8.0077,4.349,12.0064,2.8698,7.861,5.5518,15.8255,9.6985,23.1245,7.0123,12.3429,9.7361,26.1409,13.8261,39.4831,2.4247,7.9096,2.6844,16.1745,4.1571,24.2372.6112,3.3462.6215,6.6535.1644,9.9885-.971,7.085-.8197,7.4854,6.0578,8.8596,4.9095.981,9.9228,1.4335,14.8481,2.3471,5.3811.9981,10.7058,2.2966,16.0714,3.3835,2.8488.5771,5.5737,1.4336,8.2359,2.6174,9.3066,4.1382,16.5421,10.7428,22.4268,18.8835,2.2083,3.0548,4.9092,4.8621,8.6392,5.2493,4.9908.5182,9.9711,1.1392,14.9629,1.6465,2.5985.2641,5.128-.2502,7.6834-.7566,4.9745-.9858,7.6891-3.4593,8.9938-8.7631,2.9578-12.0249,9.6195-21.7162,21.1585-27.1431,7.8311-3.683,15.8126-7.0497,23.5703-10.9023,8.9073-4.4235,18.7979-5.9159,28.1842-8.7912,10.4312-3.1953,20.3189-7.0238,29.7481-12.4089,4.0353-2.3046,6.8856-6.0715,10.825-8.2563,9.1398-5.069,13.9503-13.3674,17.5852-22.542,4.9232-12.4258,6.7273-25.4833,7.5015-41.0249Zm-104.617,239.4211c.2724-.5693.5177-.8399.5092-1.1024-.0698-2.1651-.2925-4.4568,2.411-5.244,1.6673-.4856,2.9997,1.1589,3.8285,4.8459.6663,2.9642,1.1169,5.9787,1.6042,8.9805.269,1.6571.8559,2.9157,2.7854,3.0044,1.8729.0861,3.3405-.6486,4.0069-2.3887.4231-1.1048.5599-2.3692.589-3.5677.4189-17.2467-2.7828-33.5124-12.4715-48.2062-4.7247-7.1655-10.4358-13.4138-16.3723-19.5105-1.9102-1.9617-3.9353-2.7646-6.9307-1.7083-5.3288,1.879-10.8974,2.5036-16.621,1.7537-7.8459-1.028-15.7449-1.5079-23.6675-1.1988-4.4447.1734-8.7871-.5312-13.1473-1.2442-7.7276-1.2636-13.6918-4.8636-16.856-12.3196-.6394-1.5067-1.5893-2.5754-3.3055-2.7648-5.1364-.5668-10.2471-1.2442-15.4581-.7756-8.4634.7611-16.939,1.3435-25.4422,1.615-5.5072.1758-10.92-.6845-16.3792-.7916-4.1442-.0813-8.1644-.5195-12.158-1.6366-5.8954-1.6492-11.9226-2.2945-18.0593-2.1589-3.1577.0698-5.8232,1.0396-8.5496,2.638-4.5924,2.6925-7.6908,7.7649-14.2589,7.9363,1.6088,1.6065,2.9318,1.3227,4.0194,1.7049,1.031.3623,2.0815.8017,1.9184,2.1606-.1266,1.0551-1.0426,1.427-1.9215,1.7158-1.6511.5426-3.5892.0003-5.3211,1.217.8038.9886,1.7622.9504,2.577,1.2198,1.0489.3468,2.1108.8109,1.9161,2.1471-.1783,1.2234-1.2725,1.5803-2.3208,1.8993-1.4585.4438-3.2153-.1838-4.6653.9573,1.0493,1.1488,2.2495.914,3.2006,1.353.7126.3288,1.4018.7201,1.271,1.6507-.1215.8647-.8024,1.2736-1.5703,1.4254-1.3553.2679-2.7282.447-5.0028.8073,2.4236.7261,3.89,1.1147,5.3176,1.6143.7248.2536,1.3575.7471,1.3475,1.646-.0094.841-.5329,1.3787-1.2023,1.801-.9623.607-2.0123.616-3.0867.4547-.9021-.1355-1.8006-.3596-2.706-.3911-1.037-.0361-2.4221-.1495-2.4397,1.3112-.014,1.1633,1.2423,1.0858,2.1306,1.1554,1.8177.1424,3.6519.1584,5.4515.4186,1.3851.2003,2.2079,1.0657,1.7027,2.5959-.2848.8626-.5476,1.804-1.0922,2.4958-1.6699,2.1209.8107,4.5035-.5374,6.7918-.308.5228,2.2011,1.2097,3.2129,2.1278.5631.5109,1.1764.9722,1.6997,1.5202,3.2726,3.4271,7.3385,4.7191,11.9763,4.5223,1.2147-.0515,2.4544-.2352,3.643-.071,10.2009,1.4094,20.3074-.423,30.4541-.8146,8.8171-.3403,17.6379-.5203,26.4461.0686,2.1324.1426,4.2023.4061,6.3334-.0468,4.2432-.9017,8.1428.4445,11.9182,2.1543,2.1049.9533,3.3928,2.6424,3.1083,5.0787-.6169,5.2834-.8436,10.6755-2.1142,15.8041-1.7999,7.2651-2.4447,14.694-3.9563,21.9806-.9543,4.6002-.795,9.0024.9054,13.4382.8607,2.2453,1.2154,4.7092,1.6019,7.106.6253,3.8778,2.4197,5.7518,6.3415,6.5338,1.9226.3834,2.9475-.1888,3.023-2.2085.0625-1.6703.0938-3.3435.2271-5.0084.0483-.6039.4028-1.209,1.1076-1.2589.6693-.0474,1.0936.4553,1.4068.989.797,1.3577.8526,2.889,1.0398,4.4013.4793,3.8725,1.2351,4.7662,4.9569,5.3073,1.9417.2823,3.9426.2269,5.9154.2057,1.7736-.019,2.3913-1.0413,2.042-2.7365-.3067-1.4885-.6307-2.9765-.8458-4.4793-.1056-.7378-.0814-1.6333.8754-1.8428.8849-.1938,1.3474.5191,1.7246,1.1851.9119,1.6098,1.3319,3.392,1.7305,5.1743.2715,1.2141.5907,2.3812,1.8213,2.9949.5589.2787,1.2106.4603,1.6679-.0393.2454-.2681.3529-.886.2236-1.2353-.5894-1.591-1.0025-3.1934-.8132-4.903.1008-.9098.1643-1.9919,1.2645-2.1577,1.0639-.1602,1.645.7743,1.9197,1.6377.5967,1.8753.9679,3.8235,1.5856,5.6908.3793,1.1465,1.3765,1.6393,2.5646,1.2831,1.1322-.3395,1.0918-1.3119.9361-2.2506-.2979-1.7959-.675-3.5815-.893-5.3866-.0889-.736.0902-1.6265,1.0046-1.8226.8978-.1926,1.3775.5421,1.6842,1.2238.8099,1.8004,1.6285,3.6056,2.2803,5.4661.8547,2.4399,2.5201,3.3122,4.9616,2.8724,6.4936-1.1699,6.0842-.4712,5.2202-6.1974-.0681-.4513-.1428-.9029-.1815-1.3571-.0636-.7463-.2571-1.7302.5846-1.9911,1.2104-.3751,1.4725.7978,1.761,1.6093.662,1.8619,1.1605,3.7837,1.8657,5.6276.4225,1.1045,1.4134,1.6238,2.597,1.3472,1.3592-.3177,1.4267-1.4,1.2386-2.5299-.2499-1.5005-.5657-2.9912-.772-4.4973-.1043-.7616-.0464-1.6287.9619-1.7496.6543-.0785,1.18.4421,1.3828,1.0123.4561,1.2825.7462,2.6233,1.1824,3.9139.4202,1.2433.5722,3.041,2.4721,2.6104,1.4952-.3389,1.2975-1.8301,1.1763-3.0661-.089-.9072-.2291-1.818-.213-2.7249.0188-1.053-.0111-2.4706,1.2513-2.6362,1.6246-.213,1.7734,1.38,2.0013,2.5235.2664,1.3364.2418,2.7309.5092,4.067.309,1.5441,1.3115,2.4234,2.9531,2.1362,1.6765-.2933,1.5501-1.5988,1.398-2.8548-.2011-1.6611-.4476-3.3182-.5897-4.9843-.0652-.764.0765-1.6138,1.0631-1.705.6787-.0628,1.0471.538,1.3356,1.0831.9622,1.8174.8454,3.8363,1.051,5.7934.2103,2.002,1.4005,2.458,3.2085,2.1904,1.7997-.2664,2.8215-.9997,2.4129-3.0105-.3029-1.4902-.541-2.9951-.7565-4.5008-.1078-.7537-.1757-1.6583.8135-1.8371.896-.1619,1.3168.6093,1.5802,1.3298.5219,1.4275.9738,2.8805,1.4746,4.3159.2372.68.2403,1.7257,1.2149,1.6566,1.1159-.0791,1.3554-1.1745,1.3689-2.0516.0232-1.5092-.1851-3.0209-.2644-4.5333-.0329-.6267.0982-1.2668.8124-1.4288.6795-.1542,1.1149.3379,1.4609.8461.7023,1.0314.9186,2.2337,1.1996,3.4211.2397,1.0132.3915,2.3612,1.8057,2.2071,1.5877-.1729,1.5715-1.6163,1.6075-2.8329.0178-.6018-.1324-1.2071-.1817-1.8128-.1039-1.2756-1.037-3.1126.7921-3.4847,1.6182-.3293,1.9241,1.5775,2.3413,2.8551.1884.5769.2538,1.1945.4493,1.7684.3542,1.0395.282,2.4389,1.9044,2.675.7347-1.1498.3607-2.2269.4174-3.2613.0868-1.5836-.759-3.9858,1.2531-4.3716,2.3268-.4462,1.9568,2.1041,2.3631,3.6037.0396.146.0453.3009.0765.4496.1579.7513.3558,1.6962,1.2537,1.6109,1.1984-.1139,1.1746-1.2466,1.1087-2.1429-.1-1.3599-.3873-2.7062-.4837-4.0662-.0534-.7543.0959-1.6102.9489-1.8851.8979-.2893,1.3912.3918,1.7289,1.0902.6997,1.4468,1.3499,2.9176,2.1051,4.5628.7201-1.5959.336-2.963.3245-4.3102-.0089-1.0383-.3593-2.3519.9679-2.7438,1.5425-.4555,2.0464.8472,2.5771,1.974.2057.4367.0526,1.2644,1.045,1.114.4032-1.0871.335-2.8763,1.6455-3.0071,3.9049-.3899,3.3294-3.4644,3.63-5.8078.4972-3.877-.8173-5.253-4.6178-4.5307-6.0704,1.1538-7.8004-.6294-8.1632-5.9238-.0133-.1948-.4175-.3629-.6419-.5443-.8642.0886-1.2519.7699-1.6801,1.3807-6.1474,8.7695-15.5218,9.6294-23.0379,4.0638-1.9733-1.4612-3.3725-.7489-4.6172.9448-2.7398,3.728-6.6412,5.1417-11.0394,5.5995-8.768.9126-14.771-7.2125-12.9808-13.5636.9646-3.4222,2.8159-6.4161,5.6854-8.6224,6.6208-5.0908,13.4049-4.7155,19.5818,1.2055,1.5995,1.5333,2.6219,1.5144,4.107-.081,1.5451-1.66,3.3344-3.1113,5.1175-4.5272,3.6937-2.9332,7.9171-2.7223,12.1887-1.7855,2.1538.4723,3.3231,2.6054,5.6186,3.5595ZM149.0074,23.4178c.8397-6.6484.2269-7.1657-6.0191-4.9785-.1435.0503-.2839.1096-.4261.1636-27.0489,10.2677-49.5502,26.213-65.0862,51.2181-6.3074,10.1519-12.1055,20.365-14.2457,32.3248-.7523,4.2038-2.3809,8.1758-5.3783,11.4263-1.1578,1.2555-1.7342,2.8263-2.1942,4.4615-1.7351,6.1681-3.851,12.1777-7.3503,17.6192-.9033,1.4047-1.6872,2.9246-1.9122,4.609-.4698,3.5164-1.8514,6.7361-3.1485,9.9793-3.4886,8.7227-5.2493,17.755-5.0521,27.1613.067,3.1963.0352,6.3844-.85,9.5068-1.0229,3.6081-.6945,7.2187.1051,10.8231.9908,4.4663,1.5478,9.0001,1.5922,13.5653.0391,4.0253.7278,7.8481,2.4293,11.5054,1.4842,3.1902,2.4898,6.5424,2.9226,10.0394.4926,3.9801,2.2541,7.1913,5.4433,9.6553,3.2954,2.5462,5.9511,5.6471,7.784,9.4151.949,1.951,2.1987,3.7246,4.0403,4.8559,3.6475,2.2408,6.8997,4.9811,10.2066,7.6602,2.4039,1.9475,5.1722,3.2333,8.0862,4.1263,2.7668.8478,5.4714,1.8159,8.1694,2.8638,8.8389,3.4332,16.9448,2.6511,23.9331-4.4062,2.0325-2.0526,4.1412-4.0188,5.9823-6.2563,3.1895-3.8764,5.0772-8.2569,5.4131-13.2953.1213-1.8189.4503-3.6247.5543-5.4438.5037-8.81,1.1279-17.6461-.2198-26.4168-2.4888-16.1975-7.3186-31.6745-14.7145-46.3375-1.7091-3.3885-3.2371-6.8873-4.5842-10.4357-3.5622-9.3834-7.0627-18.7924-10.4124-28.2533-1.2834-3.6247-3.4304-6.7774-4.9503-10.2546-1.2178-2.786-.9438-3.3518,2.1249-3.9519,1.3678-.2675,2.6792-.5607,3.8344-1.3398,9.4678-6.3861,18.604-13.214,27.0907-20.8633,4.1157-3.7095,5.4782-8.2537,4.8276-13.9729-.755-6.6374.3064-13.3029,3.1394-19.5082,3.3791-7.4014,7.855-13.8433,14.0896-19.3559,4.9975-4.4188,10.1775-8.1674,16.3604-10.407,13.7667-4.9867,26.9214-.7927,35.8492,9.687,4.4549,5.2292,8.4384,10.7507,11.3596,17.0279,2.0152,4.3303,3.829,4.9369,8.426,3.7913,2.7894-.6952,4.4093-2.5321,5.5281-4.9927,2.1419-4.7108,4.3534-9.346,7.8509-13.2952,1.8089-2.0426,1.5017-3.1819-.374-4.536-2.1296-1.5374-3.2307-1.3608-4.8779.8555-.6585.8861-1.092,1.9775-2.7555,2.8695,1.569-4.0989,1.2835-7.2349-1.9262-9.5563-15.8744-11.4811-32.8961-19.536-53.1844-18.462-7.3084.3869-13.3929,2.5234-17.4806,9.1084Zm55.262,412.7138c-6.8434,0-13.6872-.0397-20.5301.0173-3.2702.0272-4.018.925-3.6532,4.1751.2389,2.1286.9768,4.1354,1.748,6.1261,2.18,5.6276,6.2869,10.0221,9.6464,14.8747,5.8648,8.4711,13.3831,14.8965,23.6181,17.6357,1.2925.3459,2.5441,1.0552,3.6584,1.823,9.4988,6.5442,19.539,6.7901,29.9702,2.6764,3.9607-1.562,7.9956-2.9794,11.8266-4.8172,6.1464-2.9485,12.6237-5.3216,17.9655-9.773,1.5746-1.312,3.6528-3.9505,5.269-2.2692,1.9559,2.0346-.929,3.9307-2.3656,5.5462-1.3155,1.4795-2.7362,2.8537-3.5436,4.7113-2.2475,5.1714.6702,9.492,6.2321,9.2726,3.042-.12,6.0597-.3384,9.0751-.8337,4.7962-.788,9.6107-1.5263,14.4451-2.0076,8.1457-.8111,8.1555.1099,11.1865-9.1593.0942-.2882.1557-.5887.2133-.8871,2.3911-12.393,4.8862-24.7583,4.3382-37.5105-.2781-6.4711-1.7575-12.6726-3.8945-18.6756-2.0192-5.6721-6.6158-7.3793-12.1389-4.9301-4.9389,2.1902-9.1018,5.4952-12.4828,9.7158-1.5267,1.9057-3.1327,3.7152-4.9194,5.3783-1.7075,1.5893-3.6731,2.4059-5.8163,1.2857-2.4319-1.2712-4.6844-.7125-7.0567-.0314-2.0438.5867-4.1264,1.0466-6.2054,1.5005-21.9385,4.7896-44.1765,6.5131-66.5856,6.1561Zm77.3185,94.6088c1.9758,0,3.9608.1228,5.9258-.0229,6.0176-.4461,7.8046-3.7608,4.7672-8.8906-.9211-1.5557-2.2123-2.8884-3.2769-4.3644-.8866-1.2293-1.8354-2.4492-2.4828-3.8041-.505-1.0568.1119-1.8247,1.3299-1.5222,1.4947.3714,2.7632,1.2513,3.9144,2.2643,3.208,2.8226,5.147,6.3439,5.737,10.5855.4347,3.1247,1.7129,5.6311,5.1603,6.0544,4.5738.5616,9.0951.1337,13.4719-1.404,2.2259-.782,2.9652-2.4061,2.6253-4.6664-.4322-2.8742-1.2638-5.6252-2.347-8.3166-1.0777-2.6778-2.0989-5.3788-3.1118-8.082-.3097-.8267-.9358-1.8289-.0937-2.5343,1.0462-.8763,2.0118.0653,2.8227.6547,2.621,1.905,4.8266,4.1442,5.8288,7.374.9901,3.1911,2.0422,6.3241,2.2953,9.7227.3979,5.3443,1.7396,6.4539,6.9284,5.8142,4.6693-.5756,9.3474-1.0997,13.9518-2.2033,9.23-2.2124,12.942-12.6251,7.3578-20.3371-8.6664-11.9686-20.7409-17.5478-35.0164-18.608-12.7682-.9483-25.5012.2555-38.1682,2.0127-1.0504.1457-2.1127.3011-3.1681.2927-1.582-.0127-2.6295-.7216-2.5447-2.4887.029-.6056.2518-1.2195.1897-1.8089-.5699-5.4078-1.7482-7.351-6.9693-4.4219-7.0694,3.966-14.6625,6.5993-22.6646,8.059-4.6074.8404-5.1756,1.5764-5.5667,6.2382-.0756.9012.0735,1.8189.0657,2.7286-.0233,2.715-.7035,3.3699-3.2424,2.7345-1.9108-.4783-3.7354-1.3232-5.7706-1.1109-4.9855.5201-10.0203.768-14.9435,1.6421-8.3088,1.4752-15.1979,5.1262-18.5933,13.5537-1.386,3.4402-1.2844,4.2873,1.9028,6.3061,3.8206,2.42,8.1499,3.3101,12.5222,3.9502,8.8675,1.2984,17.7733,2.3496,26.62,3.7721,10.4096,1.6738,20.9595.1951,31.3715,1.646,1.4678.2046,3.0356-.1181,4.5326-.353,2.8677-.4501,5.747-.5575,8.6388-.4662ZM56.7886,294.7146c-.031-5.4833-3.2058-11.1446-7.306-13.2635-4.7575-2.4585-9.2132-1.2958-13.3425,1.4645-3.9781,2.6592-7.197,6.3163-2.7116,12.1683.5529.7214,1.0166,1.5173,1.4675,2.3095,1.0586,1.8597,1.9531,3.7955,2.2389,5.9404.23,1.7261.2268,3.6875-1.6672,4.2854-2.1569.6809-2.8232-1.2872-3.3058-2.8826-.8012-2.6489-2.151-4.9928-3.4798-7.3971-3.7075-6.7082-10.6791-6.0069-15.1235-2.4222-10.8085,8.7179-10.6995,21.8823.4109,30.0747.4894.3609.9895.7095,1.5026,1.0355,4.708,2.9918,8.469,6.7584,11.0322,11.8529,1.2558,2.4959,1.803,4.674.9952,7.3461-1.0986,3.634-2.1604,7.2963-2.5649,11.0951-1.0623,9.9751,6.655,16.9682,15.8343,14.2369,6.0803-1.8091,10.644-5.5093,11.9281-11.9637,1.4774-7.4256,3.3503-14.8134,3.6471-22.4284.0883-2.2644-.0214-4.5145.2412-6.7987.5247-4.5644,1.7387-8.9485,2.9005-13.357.6823-2.589.2257-4.5693-2.1266-6.3484-3.6958-2.7951-3.7869-3.7252-2.102-8.1901.8678-2.2996,1.45-4.6372,1.5314-6.7579Zm179.9522,20.3136c5.3458.0896,8.6901-.5965,12.3048-2.195,5.9258-2.6204,9.9072-9.95,7.5165-16.2374-1.4051-3.6954-2.8087-7.3925-4.2975-11.0544-.7673-1.8872-2.1087-3.3385-3.9843-4.2172-.6863-.3215-1.4976-.6719-2.1437-.1138-.7996.6908-.1422,1.3549.3095,1.9474,1.6127,2.1152.4247,3.3861-1.4018,4.3148-1.0726.5454-2.2801.8271-3.4303,1.2176-6.3433,2.1537-12.9242,1.9196-19.4463,1.6572-9.5828-.3854-19.0982-1.2713-27.6311-6.4053-2.1492-1.2931-3.8455-.3935-4.3695,2.07-.1866.8771-.304,1.8672-.0906,2.7144,1.066,4.2321.7957,8.3955-.0751,12.6321-.7252,3.5281.7306,6.1418,3.9733,7.8913,3.1268,1.687,6.3587,2.7048,9.9056,3.1631,8.6093,1.1125,17.3382.2526,25.9161,1.7617,2.6895.4731,5.4272.6722,6.9441.8535Zm-95.2933,135.2135c5.4913-.784,10.8658-.6817,15.9536-2.5596,1.9482-.7191,3.2201-1.7044,2.9082-3.9494-.2701-1.944.4728-3.5493,1.4963-5.1238.7387-1.1364,1.6755-2.4314.9138-3.7927-.9268-1.6561-2.667-1.0073-4.1362-.9455-.4506.0189-.8965.1631-1.3433.2562-8.3242,1.736-16.5781,3.9017-25.215,3.5003-1.9489-.0906-3.9498.2888-5.884.6694-3.5915.7065-6.5066,2.4494-8.2546,5.8452-.9522,1.8499-.468,3.196,1.2014,4.2597,1.0575.6738,2.2315.9779,3.4639,1.0067,6.3821.1491,12.7832-.187,18.8958.8335Zm153.3047-36.7779c2.7684-1.8379,5.2443-3.8093,8.01-5.3424,4.6764-2.5923,5.9634-6.5416,4.9063-11.5796-.6606-3.1482-1.4932-6.2013-3.2366-8.9503-.6583-1.0379-1.367-2.0166-2.3635-2.7483-1.9318-1.4185-3.4291-1.1468-4.4233.9536-.442.9337-.7378,2.0402-.7317,3.0661.0489,8.2089-.7407,16.3307-2.1612,24.6011Zm-16.1092-83.9359c2.1096-6.5564-1.6357-17.9516-6.8893-21.3123-2.3119-1.4789-4.8068-1.9109-7.363-.7689-2.6742,1.1947-3.0935,2.9333-1.4253,5.3729,3.1729,4.6401,6.9784,8.7715,10.6137,13.0346,1.3536,1.5873,3.0802,2.8128,5.0639,3.6737Zm-34.1813,64.4965c.1204-3.2134-2.9182-6.4286-6.2585-6.6221-5.0702-.2938-9.6778,3.564-9.7381,8.1533-.0582,4.4335,2.3004,7.0337,6.4789,7.1428,4.6859.1223,9.3472-4.1258,9.5176-8.6739Zm17.0625,5.1078c2.3743.1745,4.8047-1.1944,6.6938-3.5656,1.719-2.1576,1.5876-6.3318-.1448-8.4829-1.8805-2.335-4.6445-2.7725-7.7683-1.2674-1.6663.8029-3.0463,1.9384-4.1967,3.3752-1.5847,1.9793-2.6931,4.0586-1.3893,6.6337,1.2541,2.4767,3.5008,3.1439,6.8053,3.307Zm-197.0152-108.3815c.2174-2.6678-3.482-8.8035-5.9664-9.8017-.3593-.1444-.903-.1008-1.254.0729-.4434.2195-.5363.8067-.2899,1.1975,1.9414,3.0788,3.9109,6.1404,5.9137,9.1796.2513.3813.8067.4367,1.1999.1337.2091-.1611.2698-.5148.3967-.782Zm-.4595,50.0693c.0427-.7266-.3992-1.1093-1.0105-1.2857-.6551-.189-1.244.003-1.3662.7357-.1119.6711.2933,1.1669.9469,1.3066.6348.1357,1.1714-.0937,1.4298-.7566Z"/>
        <path class="cls-2" d="m379.3247,144.513c-.7742,15.5415-2.5783,28.599-7.5015,41.0249-3.635,9.1745-8.4454,17.473-17.5852,22.542-3.9394,2.1848-6.7897,5.9518-10.825,8.2563-9.4291,5.3851-19.3169,9.2136-29.7481,12.4089-9.3864,2.8753-19.2769,4.3677-28.1842,8.7912-7.7577,3.8526-15.7392,7.2192-23.5703,10.9023-11.539,5.4269-18.2007,15.1182-21.1585,27.1431-1.3047,5.3038-4.0193,7.7773-8.9938,8.7631-2.5554.5064-5.0849,1.0207-7.6834.7566-4.9919-.5073-9.9721-1.1283-14.9629-1.6465-3.7301-.3872-6.4309-2.1945-8.6392-5.2493-5.8848-8.1408-13.1203-14.7453-22.4268-18.8835-2.6622-1.1838-5.3872-2.0403-8.2359-2.6174-5.3656-1.0869-10.6903-2.3854-16.0714-3.3835-4.9252-.9135-9.9386-1.3661-14.8481-2.3471-6.8776-1.3742-7.0289-1.7747-6.0578-8.8596.4571-3.3349.4468-6.6423-.1644-9.9885-1.4727-8.0627-1.7324-16.3276-4.1571-24.2372-4.09-13.3421-6.8138-27.1401-13.8261-39.4831-4.1467-7.299-6.8287-15.2635-9.6985-23.1245-1.4598-3.9987-2.7801-8.0516-4.349-12.0064-1.3235-3.3361-.5465-5.9376,2.2188-8.0431,8.5911-6.5415,16.8638-13.5104,25.9282-19.4171,3.0538-1.9899,3.3663-1.9732,5.7663.6176,2.6873,2.9009,5.2943,5.8793,7.8577,8.8909,2.5393,2.9834,5.6702,4.9195,9.3683,6.2178,17.4242,6.1173,32.7541,1.808,46.2706-9.7519,7.4252-6.3503,11.1129-15.0783,12.6402-24.6877.1906-1.1991.3548-2.4109.6686-3.5799.5199-1.9369,2.0492-2.436,3.851-2.583,1.6993-.1387,3.0055.3404,3.7357,1.9537.7525,1.6626,1.5856,3.3008,2.1822,5.0196,1.3652,3.9333,3.5443,7.3815,5.9527,10.7338,8.6638,12.0596,20.3964,17.3676,35.2241,17.464,8.8406.0575,15.9039-3.4398,22.7921-8.0121,4.3187-2.8668,6.5345-7.5469,9.1851-11.7889,1.3669-2.1876,2.392-4.5856,3.6554-6.8414,5.2288-9.3358,5.1968-19.1845,2.909-29.258-1.4864-6.5446-.7659-7.3596,6.0784-6.5749,1.3463.1543,2.7064.4687,3.9805.9292,14.9277,5.3952,28.6248,12.6121,38.9153,25.262,3.3423,4.1086,7.6684,7.4448,10.4989,11.9879,3.9892,6.4027,8.7068,12.3569,11.0384,19.78,1.0756,3.4243,3.2851,6.6727,3.5836,10.2431.7046,8.4307,6.232,16.0664,4.3864,22.6767Zm-87.0612-13.6917c-4.6669-.261-9.0245.3737-13.2501,1.6632-4.5625,1.3924-8.7273,3.6211-11.6562,7.5153-3.5875,4.7699-2.878,9.6249,1.58,13.5475,3.3037,2.9069,7.1051,4.559,11.4255,5.1761,7.3479,1.0495,14.5073-.0716,21.6083-1.8341,1.7692-.4391,3.4312-1.1802,5.0084-2.126,6.8014-4.0784,8.1143-11.8338,2.9789-17.8665-1.7069-2.0052-3.8407-3.3938-6.3171-4.3126-3.7511-1.3918-7.5903-2.1151-11.3778-1.7629Z"/>
        <path class="cls-1" d="m274.7077,383.9341c-2.2955-.9541-3.4648-3.0872-5.6186-3.5595-4.2715-.9368-8.4949-1.1477-12.1887,1.7855-1.7831,1.4159-3.5724,2.8672-5.1175,4.5272-1.485,1.5954-2.5075,1.6142-4.107.081-6.1768-5.921-12.961-6.2963-19.5818-1.2055-2.8695,2.2064-4.7208,5.2002-5.6854,8.6224-1.7902,6.3511,4.2127,14.4762,12.9808,13.5636,4.3982-.4578,8.2996-1.8716,11.0394-5.5995,1.2447-1.6937,2.6439-2.4061,4.6172-.9448,7.5161,5.5656,16.8905,4.7057,23.0379-4.0638.4282-.6109.8159-1.2921,1.6813-1.3803.2232.181.6274.349.6407.5439.3628,5.2944,2.0928,7.0776,8.1632,5.9238,3.8006-.7224,5.115.6537,4.6178,4.5307-.3005,2.3434.2749,5.4178-3.63,5.8078-1.3104.1309-1.2423,1.92-1.6455,3.0071-.9924.1505-.8393-.6773-1.045-1.114-.5308-1.1268-1.0346-2.4295-2.5771-1.974-1.3272.3919-.9767,1.7055-.9679,2.7438.0115,1.3472.3956,2.7143-.3245,4.3102-.7552-1.6453-1.4054-3.116-2.1051-4.5628-.3377-.6983-.831-1.3795-1.7289-1.0902-.853.2749-1.0023,1.1308-.9489,1.8851.0964,1.36.3837,2.7063.4837,4.0662.0659.8963.0897,2.029-1.1087,2.1429-.8979.0853-1.0958-.8596-1.2537-1.6109-.0312-.1487-.0369-.3036-.0765-.4496-.4063-1.4996-.0363-4.0499-2.3631-3.6037-2.0121.3858-1.1663,2.7879-1.2531,4.3716-.0567,1.0344.3173,2.1116-.4174,3.2613-1.6224-.2362-1.5502-1.6355-1.9044-2.675-.1955-.5738-.2609-1.1915-.4493-1.7684-.4172-1.2776-.723-3.1844-2.3413-2.8551-1.829.3721-.896,2.2091-.7921,3.4847.0494.6057.1995,1.211.1817,1.8128-.036,1.2166-.0198,2.6599-1.6075,2.8329-1.4141.1541-1.5659-1.1939-1.8057-2.2071-.281-1.1874-.4973-2.3897-1.1996-3.4211-.346-.5082-.7813-1.0002-1.4609-.8461-.7142.162-.8453.8021-.8124,1.4288.0793,1.5123.2876,3.0241.2644,4.5333-.0135.8771-.253,1.9724-1.3689,2.0516-.9746.0691-.9777-.9766-1.2149-1.6566-.5007-1.4355-.9527-2.8884-1.4746-4.3159-.2634-.7205-.6843-1.4916-1.5802-1.3298-.9892.1787-.9213,1.0834-.8135,1.8371.2155,1.5057.4536,3.0106.7565,4.5008.4087,2.0108-.6131,2.7442-2.4129,3.0105-1.808.2676-2.9982-.1884-3.2085-2.1904-.2056-1.9571-.0888-3.976-1.051-5.7934-.2886-.5451-.6569-1.1458-1.3356-1.0831-.9866.0912-1.1283.9409-1.0631,1.705.1421,1.6661.3886,3.3232.5897,4.9843.1521,1.256.2786,2.5616-1.398,2.8548-1.6416.2872-2.6441-.5921-2.9531-2.1362-.2674-1.3361-.2428-2.7306-.5092-4.067-.2279-1.1435-.3767-2.7365-2.0013-2.5235-1.2624.1655-1.2326,1.5831-1.2513,2.6362-.0162.9068.124,1.8176.213,2.7249.1213,1.236.3189,2.7271-1.1763,3.0661-1.8999.4306-2.0519-1.3671-2.4721-2.6104-.4362-1.2905-.7262-2.6314-1.1824-3.9139-.2028-.5702-.7285-1.0908-1.3828-1.0123-1.0083.1209-1.0662.9879-.9619,1.7496.2063,1.5061.5221,2.9968.772,4.4973.1882,1.1298.1206,2.2122-1.2386,2.5299-1.1836.2766-2.1745-.2427-2.597-1.3472-.7052-1.8439-1.2037-3.7657-1.8657-5.6276-.2885-.8115-.5505-1.9844-1.761-1.6093-.8417.2609-.6482,1.2448-.5846,1.9911.0387.4542.1134.9058.1815,1.3571.8641,5.7263,1.2734,5.0276-5.2202,6.1974-2.4415.4399-4.1069-.4325-4.9616-2.8724-.6518-1.8605-1.4704-3.6658-2.2803-5.4661-.3066-.6817-.7863-1.4164-1.6842-1.2238-.9144.1961-1.0935,1.0866-1.0046,1.8226.2179,1.8051.5951,3.5907.893,5.3866.1557.9387.1961,1.9112-.9361,2.2506-1.1881.3562-2.1853-.1365-2.5646-1.2831-.6177-1.8673-.9889-3.8154-1.5856-5.6908-.2747-.8634-.8558-1.7979-1.9197-1.6377-1.1002.1657-1.1637,1.2479-1.2645,2.1577-.1893,1.7096.2238,3.3119.8132,4.903.1294.3493.0219.9672-.2236,1.2353-.4573.4995-1.109.3179-1.6679.0393-1.2306-.6137-1.5498-1.7808-1.8213-2.9949-.3986-1.7822-.8186-3.5645-1.7305-5.1743-.3772-.666-.8397-1.3789-1.7246-1.1851-.9569.2095-.981,1.105-.8754,1.8428.2151,1.5028.5391,2.9908.8458,4.4793.3493,1.6952-.2684,2.7174-2.042,2.7365-1.9729.0212-3.9737.0766-5.9154-.2057-3.7218-.5411-4.4776-1.4349-4.9569-5.3073-.1872-1.5124-.2429-3.0437-1.0398-4.4013-.3133-.5337-.7376-1.0364-1.4068-.989-.7048.0499-1.0592.655-1.1076,1.2589-.1333,1.6649-.1647,3.3381-.2271,5.0084-.0755,2.0197-1.1003,2.5919-3.023,2.2085-3.9217-.782-5.7162-2.656-6.3415-6.5338-.3865-2.3968-.7412-4.8608-1.6019-7.106-1.7004-4.4357-1.8598-8.838-.9054-13.4382,1.5117-7.2867,2.1564-14.7156,3.9563-21.9806,1.2706-5.1286,1.4973-10.5207,2.1142-15.8041.2845-2.4363-1.0034-4.1255-3.1083-5.0787-3.7755-1.7098-7.675-3.056-11.9182-2.1543-2.1311.4529-4.201.1894-6.3334.0468-8.8082-.5889-17.629-.4089-26.4461-.0686-10.1467.3916-20.2532,2.2241-30.4541.8146-1.1885-.1642-2.4282.0195-3.643.071-4.6378.1968-8.7036-1.0952-11.9763-4.5223-.5233-.548-1.1366-1.0093-1.6997-1.5202-1.0118-.9181-3.5209-1.605-3.2129-2.1278,1.3481-2.2884-1.1325-4.6709.5374-6.7918.5447-.6917.8075-1.6332,1.0922-2.4958.5052-1.5302-.3176-2.3957-1.7027-2.5959-1.7996-.2602-3.6339-.2762-5.4515-.4186-.8883-.0696-2.1446.0079-2.1306-1.1554.0176-1.4607,1.4027-1.3472,2.4397-1.3112.9054.0315,1.8039.2556,2.706.3911,1.0744.1613,2.1245.1523,3.0867-.4547.6694-.4223,1.1929-.9601,1.2023-1.801.01-.8989-.6227-1.3924-1.3475-1.646-1.4276-.4996-2.894-.8882-5.3176-1.6143,2.2746-.3603,3.6475-.5393,5.0028-.8073.7679-.1518,1.4488-.5607,1.5703-1.4254.1307-.9307-.5584-1.3219-1.271-1.6507-.9511-.4389-2.1514-.2041-3.2006-1.353,1.45-1.141,3.2069-.5135,4.6653-.9573,1.0483-.319,2.1425-.6759,2.3208-1.8993.1948-1.3362-.8672-1.8002-1.9161-2.1471-.8148-.2694-1.7731-.2311-2.577-1.2198,1.7318-1.2167,3.67-.6744,5.3211-1.217.879-.2889,1.7949-.6607,1.9215-1.7158.1631-1.3589-.8874-1.7984-1.9184-2.1606-1.0877-.3822-2.4106-.0984-4.0194-1.7049,6.5681-.1714,9.6665-5.2438,14.2589-7.9363,2.7264-1.5985,5.3918-2.5682,8.5496-2.638,6.1366-.1356,12.1639.5097,18.0593,2.1589,3.9936,1.1171,8.0139,1.5553,12.158,1.6366,5.4592.1071,10.872.9674,16.3792.7916,8.5032-.2715,16.9788-.8538,25.4422-1.615,5.211-.4687,10.3217.2088,15.4581.7756,1.7162.1894,2.6661,1.2581,3.3055,2.7648,3.1642,7.456,9.1284,11.056,16.856,12.3196,4.3603.713,8.7027,1.4175,13.1473,1.2442,7.9226-.309,15.8215.1709,23.6675,1.1988,5.7236.7499,11.2922.1253,16.621-1.7537,2.9955-1.0562,5.0206-.2534,6.9307,1.7083,5.9365,6.0968,11.6475,12.345,16.3723,19.5105,9.6886,14.6938,12.8904,30.9595,12.4715,48.2062-.0291,1.1985-.1658,2.4628-.589,3.5677-.6664,1.7401-2.134,2.4748-4.0069,2.3887-1.9295-.0887-2.5163-1.3473-2.7854-3.0044-.4873-3.0018-.9379-6.0163-1.6042-8.9805-.8288-3.687-2.1612-5.3315-3.8285-4.8459-2.7034.7872-2.4808,3.079-2.411,5.244.0085.2625-.2368.533-.5092,1.1024Zm-15.6464-28.196c-1.6256-.7623-1.9778-2.2084-2.7958-3.2417-3.4289-4.3318-7.8664-5.9493-13.2709-5.4162-6.8831.6789-10.6815,5.271-13.6395,10.7939-2.6849,5.0131-2.3941,9.9883,1.1857,14.5077,3.3401,4.2169,9.3557,5.8771,14.8982,4.0123,5.0418-1.6964,9.0134-4.8878,11.7728-9.5113.6566-1.1003.8225-2.6244,2.5958-3.1398.5978,2.5673,1.1999,5.0396,1.7441,7.5246.4864,2.2213,1.912,3.5311,4.0768,3.679,4.2903.2932,8.4537-.5747,12.4622-2.0577,1.1691-.4326,2.0372-1.4385,1.7151-2.871-.3274-1.4566-1.5747-1.7052-2.8162-1.849-1.8436-.2137-3.6139.3415-5.4197.5334-3.1637.3361-5.0482-.7092-5.3953-2.8476-.3474-2.1398,1.0167-3.8215,3.9475-4.7753,1.4347-.4668,3.008-.4981,4.3109-1.3823.8851-.6008,1.9031-1.1916,1.7749-2.4273-.1571-1.5138-1.4187-1.8882-2.6604-1.983-1.6609-.1268-3.3372-.04-5.0024-.1294-1.1172-.06-2.1022-.4871-2.431-1.6944-.358-1.314.1153-2.3845,1.1495-3.2189,1.11-.8954,2.4592-1.1408,3.8145-1.3575,1.2029-.1923,2.4378-.3417,3.3417-1.2705,1.1178-1.1486,1.4027-2.4245.0013-3.5104-2.2195-1.7199-12.264.3518-13.535,2.7919-.4074.7821-.509,1.7362-.6825,2.6248-.3964,2.0306-.7507,4.0694-1.1424,6.2158Zm-39.975,6.105c.0733,3.3238.4171,6.705-1.0512,9.8527-.8238,1.7661-2.1567,3.0083-4.1611,3.0849-1.8486.0707-3.0963-1.0482-3.9329-2.6292-.2121-.4009-.36-.8354-.5471-1.25-.5007-1.1095-.951-2.4521-2.5039-2.1199-1.5721.3364-1.9772,1.7316-2.1427,3.1473-.1642,1.4044.1386,2.7016.9449,3.8876,3.5307,5.1937,13.1972,5.0841,16.5435-.222,1.6531-2.6213,2.4542-5.4842,2.5031-8.6203.059-3.7811.024-7.5564.6476-11.3378.4502-2.7298,1.3805-4.5333,4.2255-5.1143,1.1898-.2429,2.5395-.758,2.3193-2.3046-.2437-1.7113-1.8148-1.9195-3.1741-1.9658-3.6338-.1238-7.2774-.2934-10.8812.4587-1.6272.3396-3.3008.4966-4.8938.9469-1.0794.3051-1.7934,1.1915-1.6124,2.43.1452.9935.861,1.5897,1.7938,1.8428.5752.1561,1.2038.2626,1.7901.2049,2.8263-.278,3.8356,1.4999,4.0887,3.804.2137,1.9462.044,3.9345.044,5.9042Zm-19.9651,34.3587c-.002,1.8252.204,3.588.7973,5.3569,2.3724,7.0732,15.276,8.5346,20.476,3.8489.578-.5208,1.0028-1.2096.7547-2.0161-.305-.9915-1.1731-1.311-2.1121-1.4461-2.0089-.2892-3.8778.6049-5.8451.6976-4.2945.2024-8.0214-2.599-8.0248-6.2824-.0044-4.7758,4.9649-11.1213,10.8982-9.2357.8643.2747,1.7584.4814,2.6539.6258,1.1355.1832,2.1764-.0668,2.6101-1.2658.4272-1.1808-.225-2.0502-1.1178-2.7284-1.4865-1.1293-3.1897-1.7177-5.0416-1.8973-8.3226-.8071-15.9541,6.0129-16.0488,14.3426Zm-28.2,25.1752c-.3814-1.479.3395-4.2369-2.1326-3.9904-2.1962.219-1.4814,2.8311-1.4543,4.5421.0091.5751.248,1.166.471,1.7134.2942.7223.8136,1.3599,1.6485,1.2665.8417-.0942,1.1751-.8309,1.2876-1.6117.085-.5899.1137-1.188.1799-1.9199Zm45.1007,5.4346c-.5408-1.7033-.3058-3.8488-2.169-5.0643-.2498-.163-.9182-.0102-1.1785.2292-.8145.7493-.282,4.5532.7693,5.8945.3793.4839.8916.8608,1.5185.7448.908-.1681,1.0503-.9164,1.0597-1.8042Zm-29.7581-1.7504c-.2845-1.6985-.3669-3.5427-1.8979-4.7988-.4011-.3291-.9449-.1842-1.1631.2398-.9118,1.7716-.2035,3.4996.3023,5.1981.2485.8342.6132,1.8716,1.7453,1.6451,1.1597-.232.9119-1.3612,1.0133-2.2842Z"/>
        <path class="cls-2" d="m149.0074,23.4178c4.0877-6.585,10.1722-8.7216,17.4806-9.1084,20.2883-1.074,37.3101,6.981,53.1844,18.462,3.2096,2.3214,3.4952,5.4574,1.9262,9.5563,1.6634-.8919,2.0969-1.9834,2.7555-2.8695,1.6472-2.2164,2.7483-2.393,4.8779-.8555,1.8758,1.3542,2.183,2.4935.374,4.536-3.4975,3.9492-5.7091,8.5844-7.8509,13.2952-1.1187,2.4605-2.7387,4.2975-5.5281,4.9927-4.597,1.1457-6.4108.539-8.426-3.7913-2.9212-6.2772-6.9048-11.7987-11.3596-17.0279-8.9278-10.4797-22.0824-14.6737-35.8492-9.687-6.1829,2.2396-11.3629,5.9882-16.3604,10.407-6.2346,5.5126-10.7105,11.9545-14.0896,19.3559-2.833,6.2054-3.8945,12.8708-3.1394,19.5082.6506,5.7192-.712,10.2633-4.8276,13.9729-8.4867,7.6493-17.623,14.4772-27.0907,20.8633-1.1552.7792-2.4665,1.0724-3.8344,1.3398-3.0687.6-3.3427,1.1658-2.1249,3.9519,1.5199,3.4772,3.6669,6.6299,4.9503,10.2546,3.3497,9.4609,6.8502,18.8699,10.4124,28.2533,1.3471,3.5484,2.875,7.0472,4.5842,10.4357,7.3959,14.6629,12.2257,30.1399,14.7145,46.3375,1.3477,8.7708.7235,17.6068.2198,26.4168-.104,1.8192-.4331,3.6249-.5543,5.4438-.3359,5.0384-2.2236,9.4189-5.4131,13.2953-1.8411,2.2375-3.9498,4.2037-5.9823,6.2563-6.9883,7.0574-15.0942,7.8394-23.9331,4.4062-2.698-1.048-5.4026-2.016-8.1694-2.8638-2.9141-.893-5.6823-2.1788-8.0862-4.1263-3.307-2.6791-6.5591-5.4194-10.2066-7.6602-1.8416-1.1314-3.0912-2.9049-4.0403-4.8559-1.8329-3.7681-4.4886-6.869-7.784-9.4151-3.1891-2.464-4.9507-5.6752-5.4433-9.6553-.4328-3.497-1.4383-6.8492-2.9226-10.0394-1.7015-3.6573-2.3902-7.4801-2.4293-11.5054-.0444-4.5653-.6014-9.099-1.5922-13.5653-.7996-3.6044-1.128-7.215-.1051-10.8231.8852-3.1224.917-6.3105.85-9.5068-.1971-9.4063,1.5635-18.4386,5.0521-27.1613,1.2971-3.2432,2.6788-6.4629,3.1485-9.9793.225-1.6843,1.0089-3.2042,1.9122-4.609,3.4993-5.4415,5.6152-11.4511,7.3503-17.6192.46-1.6353,1.0365-3.206,2.1942-4.4615,2.9975-3.2505,4.6261-7.2225,5.3783-11.4263,2.1402-11.9599,7.9382-22.173,14.2457-32.3248,15.536-25.0051,38.0373-40.9504,65.0862-51.2181.1422-.054.2826-.1133.4261-.1636,6.246-2.1872,6.8588-1.6699,6.0191,4.9785ZM63.6017,127.9957c-2.0592.786-2.4514,2.3595-3.183,3.6295-2.7509,4.7752-4.624,9.9175-6.0426,15.2142-.6772,2.5285-1.6114,4.8753-3.0205,7.0846-2.4881,3.9013-4.0942,8.175-4.4913,12.7922-.4163,4.8403-.8265,9.6782-.8965,14.5551-.0788,5.4889,1.018,10.939.595,16.3846-.4217,5.4284.4807,10.5572,1.8734,15.7311.9056,3.3644,1.3855,6.847,1.9847,10.289.4192,2.4083,1.2747,4.6762,1.9652,7.003,2.6954,9.0832,8.8625,15.8546,15.0612,22.5169,5.7365,6.1655,13.1548,9.7536,21.2215,11.8776,5.0546,1.3309,10.2167,1.0352,14.3619-2.3343,7.1183-5.7863,12.5987-12.712,13.3369-22.4535.1742-2.2984-.1746-4.5417-.0116-6.8141.9253-12.8999-.3704-25.4776-5.5045-37.4937-.4161-.9738-.7596-1.9965-.9893-3.0292-2.1325-9.5856-6.5424-18.2656-10.4717-27.1696-4.1604-9.4277-10.2373-17.7708-14.5881-27.0699-.9027-1.9294-2.457-3.8537-4.7915-3.7132-2.6521.1597-3.6236,2.4448-4.1852,4.7776-.1778.7387-.3501,1.4819-.4638,2.2324-.8469,5.5903-2.7881,10.8883-4.3393,16.2901-.167.5816-.4069,1.1442-.641,1.7038-.189.452-.5543.7785-1.0455.6996-.7569-.1216-.8264-.7471-.8003-1.3704.0127-.3023.0496-.607.1107-.9033,1.8982-9.2063,3.1062-18.5477,5.4235-27.6726.2592-1.0208.4731-2.0705.5383-3.1174.0479-.7694-.2868-1.5373-1.1014-1.8254-.8399-.297-1.4839.1574-1.8995.8439-.6286,1.0383-1.2971,2.0764-1.7438,3.1963-1.4074,3.5288-2.624,7.1362-4.1128,10.6286-.6376,1.4955-.1492,4.5959-2.4194,4.0479-1.9103-.4611-.4974-3.2119-.4623-4.9139.0772-3.7479,1.626-7.4107.7325-11.6171Z"/>
        <path class="cls-2" d="m204.2694,436.1316c22.4091.357,44.6471-1.3665,66.5856-6.1561,2.079-.4539,4.1617-.9138,6.2054-1.5005,2.3722-.681,4.6248-1.2398,7.0567.0314,2.1432,1.1202,4.1088.3036,5.8163-1.2857,1.7867-1.6631,3.3927-3.4726,4.9194-5.3783,3.381-4.2205,7.5439-7.5256,12.4828-9.7158,5.5231-2.4492,10.1197-.742,12.1389,4.9301,2.137,6.003,3.6165,12.2045,3.8945,18.6756.548,12.7522-1.9471,25.1175-4.3382,37.5105-.0576.2985-.1191.5989-.2133.8871-3.031,9.2692-3.0407,8.3482-11.1865,9.1593-4.8344.4813-9.6488,1.2196-14.4451,2.0076-3.0154.4954-6.0332.7137-9.0751.8337-5.5619.2194-8.4796-4.1013-6.2321-9.2726.8074-1.8576,2.2281-3.2319,3.5436-4.7113,1.4366-1.6156,4.3214-3.5117,2.3656-5.5462-1.6162-1.6813-3.6944.9572-5.269,2.2692-5.3418,4.4514-11.8192,6.8244-17.9655,9.773-3.831,1.8378-7.8658,3.2552-11.8266,4.8172-10.4312,4.1138-20.4714,3.8679-29.9702-2.6764-1.1143-.7677-2.3659-1.4771-3.6584-1.823-10.235-2.7392-17.7533-9.1646-23.6181-17.6357-3.3595-4.8526-7.4663-9.2471-9.6464-14.8747-.7712-1.9907-1.5091-3.9974-1.748-6.1261-.3647-3.2501.383-4.1479,3.6532-4.1751,6.843-.057,13.6867-.0173,20.5301-.0173Z"/>
        <path class="cls-2" d="m281.5878,530.7404c-2.8918-.0912-5.7711.0162-8.6388.4662-1.497.2349-3.0648.5576-4.5326.353-10.412-1.4509-20.9619.0278-31.3715-1.646-8.8467-1.4225-17.7525-2.4737-26.62-3.7721-4.3723-.6401-8.7016-1.5302-12.5222-3.9502-3.1872-2.0188-3.2888-2.8659-1.9028-6.3061,3.3954-8.4275,10.2845-12.0785,18.5933-13.5537,4.9232-.8741,9.9579-1.122,14.9435-1.6421,2.0352-.2123,3.8598.6326,5.7706,1.1109,2.539.6354,3.2191-.0195,3.2424-2.7345.0078-.9096-.1413-1.8274-.0657-2.7286.3911-4.6618.9594-5.3979,5.5667-6.2382,8.0021-1.4597,15.5953-4.093,22.6646-8.059,5.221-2.9291,6.3993-.9859,6.9693,4.4219.0621.5894-.1607,1.2033-.1897,1.8089-.0847,1.767.9628,2.476,2.5447,2.4887,1.0555.0085,2.1177-.1469,3.1681-.2927,12.667-1.7571,25.4-2.9609,38.1682-2.0127,14.2755,1.0602,26.3501,6.6394,35.0164,18.608,5.5842,7.712,1.8723,18.1248-7.3578,20.3371-4.6044,1.1036-9.2825,1.6277-13.9518,2.2033-5.1889.6397-6.5305-.4699-6.9284-5.8142-.253-3.3986-1.3051-6.5316-2.2953-9.7227-1.0022-3.2298-3.2078-5.469-5.8288-7.374-.811-.5894-1.7765-1.5309-2.8227-.6547-.8421.7054-.2161,1.7076.0937,2.5343,1.0129,2.7032,2.0341,5.4042,3.1118,8.082,1.0831,2.6914,1.9148,5.4424,2.347,8.3166.3399,2.2603-.3994,3.8844-2.6253,4.6664-4.3768,1.5377-8.8981,1.9656-13.4719,1.404-3.4474-.4233-4.7255-2.9296-5.1603-6.0544-.59-4.2416-2.5291-7.7628-5.737-10.5855-1.1512-1.0129-2.4197-1.8929-3.9144-2.2643-1.218-.3025-1.8349.4654-1.3299,1.5222.6474,1.3549,1.5962,2.5748,2.4828,3.8041,1.0646,1.476,2.3557,2.8087,3.2769,4.3644,3.0374,5.1298,1.2505,8.4445-4.7672,8.8906-1.965.1457-3.95.0229-5.9258.0229Z"/>
        <path class="cls-2" d="m56.7886,294.7146c-.0814,2.1207-.6636,4.4583-1.5314,6.7579-1.6849,4.4649-1.5938,5.395,2.102,8.1901,2.3523,1.779,2.8089,3.7593,2.1266,6.3484-1.1618,4.4086-2.3758,8.7927-2.9005,13.357-.2626,2.2842-.153,4.5342-.2412,6.7987-.2968,7.6149-2.1696,15.0027-3.6471,22.4284-1.2842,6.4543-5.8478,10.1545-11.9281,11.9637-9.1792,2.7312-16.8965-4.2619-15.8343-14.2369.4045-3.7988,1.4663-7.4611,2.5649-11.0951.8078-2.6721.2605-4.8503-.9952-7.3461-2.5632-5.0945-6.3241-8.8612-11.0322-11.8529-.5131-.326-1.0133-.6746-1.5026-1.0355-11.1105-8.1924-11.2194-21.3568-.4109-30.0747,4.4444-3.5847,11.416-4.2861,15.1235,2.4222,1.3288,2.4043,2.6785,4.7483,3.4798,7.3971.4826,1.5953,1.149,3.5634,3.3058,2.8826,1.8941-.5979,1.8973-2.5593,1.6672-4.2854-.2858-2.1449-1.1803-4.0806-2.2389-5.9404-.4509-.7922-.9146-1.5881-1.4675-2.3095-4.4854-5.852-1.2665-9.5091,2.7116-12.1683,4.1293-2.7603,8.585-3.923,13.3425-1.4645,4.1001,2.1188,7.275,7.7801,7.306,13.2635Z"/>
        <path class="cls-1" d="m236.7408,315.0282c-1.5169-.1813-4.2546-.3804-6.9441-.8535-8.578-1.509-17.3069-.6492-25.9161-1.7617-3.5469-.4584-6.7788-1.4761-9.9056-3.1631-3.2426-1.7495-4.6984-4.3632-3.9733-7.8913.8708-4.2366,1.1411-8.3999.0751-12.6321-.2134-.8472-.0959-1.8373.0906-2.7144.524-2.4635,2.2203-3.3631,4.3695-2.07,8.5329,5.1339,18.0483,6.0198,27.6311,6.4053,6.522.2623,13.103.4964,19.4463-1.6572,1.1502-.3905,2.3578-.6722,3.4303-1.2176,1.8265-.9288,3.0144-2.1996,1.4018-4.3148-.4517-.5925-1.1091-1.2566-.3095-1.9474.646-.5581,1.4574-.2078,2.1437.1138,1.8755.8787,3.217,2.33,3.9843,4.2172,1.4888,3.6619,2.8924,7.3591,4.2975,11.0544,2.3907,6.2874-1.5908,13.617-7.5165,16.2374-3.6147,1.5985-6.959,2.2846-12.3048,2.195Zm-39.5242-18.8115c0-1.0498.065-2.1048-.0198-3.1477-.0728-.8945-.27-1.917-1.4348-1.9237-1.0853-.0064-1.5579.9464-1.6828,1.8239-.4847,3.4058-.8932,6.824-1.2431,10.2465-.0942.9214.2575,1.9189,1.3032,2.0847,1.0366.1643,1.6464-.6479,1.8964-1.5657.6704-2.4611,1.3575-4.9267,1.1809-7.518Zm3.7399,4.9979c.0588,1.226.0667,2.1315.156,3.0289.0781.7845.3965,1.5501,1.2442,1.6765.8997.1342,1.2996-.6247,1.5712-1.3391.8042-2.1159,1.6387-4.2376,1.3742-6.572-.1217-1.0741-.3773-2.1924-1.6511-2.3993-1.3719-.2229-1.8373.8905-2.0918,1.9109-.3257,1.3062-.443,2.6645-.6027,3.6941Zm48.1231-9.2549c-.6983-.0085-1.152.3756-1.2845,1.0041-.6482,3.0736-.2228,5.9751,1.6389,8.556.5345.741,1.3402,1.2982,2.3274.7601.7322-.3991.9989-1.171.7912-1.932-.6689-2.4517-1.3951-4.8889-2.1638-7.3112-.1779-.5605-.6311-1.0166-1.3092-1.077Zm-6.2942,4.5507c-.2445.1283-.7234.2357-.9739.5345-1.6537,1.9729-.3312,8.5603,2.0087,9.8086,1.2726.6789,2.1475.0904,1.9673-1.3056-.3245-2.514-.8384-5.0061-1.3494-7.4917-.1514-.7367-.6376-1.3425-1.6527-1.5458Zm-3.4751,7.8033c-.1445-1.4629.0558-2.9037-1.2577-3.7613-.2942-.1921-.9639-.203-1.2177.0026-1.3892,1.1257-1.0131,2.65-.7202,4.0993.1148.5679.3514,1.147.6751,1.6244.22.3244.6732.6428,1.0479.6764.6492.0582,1.0755-.4142,1.22-1.0404.1323-.5735.1864-1.165.2526-1.6012Zm-29.3921-2.6209c1.4545-.2768,1.7696-1.4223,1.7917-2.6607.019-1.066-.1761-2.3089-1.5135-2.3317-1.6265-.0277-1.7118,1.4107-1.7715,2.5938-.0532,1.0554.0697,2.1346,1.4933,2.3986Zm24.5934,3.4239c-.0788-1.0643-.363-2.0959-1.7332-2.0493-.8513.029-1.2714.7629-1.2484,1.5582.0325,1.1227.4862,2.1294,1.7663,2.144.871.0099,1.1084-.8272,1.2153-1.6528Zm-18.4758-6.4119c-.4938.0474-.8274.3263-.8954.7958-.0941.6499.1486,1.1857.8684,1.2433.4806.0385.8231-.3174.8946-.7869.0998-.6552-.1664-1.1237-.8676-1.2522Z"/>
        <path class="cls-2" d="m141.4476,450.2417c-6.1127-1.0205-12.5138-.6843-18.8958-.8335-1.2324-.0288-2.4064-.3329-3.4639-1.0067-1.6695-1.0637-2.1537-2.4098-1.2014-4.2597,1.748-3.3958,4.6631-5.1387,8.2546-5.8452,1.9342-.3806,3.9351-.76,5.884-.6694,8.6369.4014,16.8908-1.7644,25.215-3.5003.4467-.0932.8927-.2373,1.3433-.2562,1.4692-.0618,3.2094-.7106,4.1362.9455.7617,1.3613-.1751,2.6563-.9138,3.7927-1.0235,1.5746-1.7663,3.1798-1.4963,5.1238.3119,2.245-.96,3.2303-2.9082,3.9494-5.0877,1.8779-10.4623,1.7756-15.9536,2.5596Z"/>
        <path class="cls-1" d="m294.7522,413.4638c1.4205-8.2704,2.2101-16.3922,2.1612-24.6011-.0061-1.0259.2897-2.1324.7317-3.0661.9942-2.1003,2.4915-2.3721,4.4233-.9536.9964.7317,1.7052,1.7104,2.3635,2.7483,1.7434,2.749,2.576,5.8021,3.2366,8.9503,1.0571,5.0381-.2298,8.9874-4.9063,11.5796-2.7657,1.5331-5.2416,3.5046-8.01,5.3424Z"/>
        <path class="cls-1" d="m278.643,329.5279c-1.9837-.8609-3.7103-2.0864-5.0639-3.6737-3.6353-4.2631-7.4408-8.3945-10.6137-13.0346-1.6682-2.4396-1.2489-4.1782,1.4253-5.3729,2.5562-1.142,5.0511-.7099,7.363.7689,5.2535,3.3607,8.9989,14.7559,6.8893,21.3123Z"/>
        <path class="cls-1" d="m244.4617,394.0244c-.1704,4.5481-4.8317,8.7962-9.5176,8.6739-4.1785-.109-6.5371-2.7093-6.4789-7.1428.0602-4.5893,4.6678-8.447,9.7381-8.1533,3.3402.1936,6.3789,3.4088,6.2585,6.6221Z"/>
        <path class="cls-1" d="m261.5242,399.1322c-3.3045-.1631-5.5512-.8302-6.8053-3.307-1.3039-2.5751-.1954-4.6544,1.3893-6.6337,1.1504-1.4368,2.5304-2.5724,4.1967-3.3752,3.1239-1.5051,5.8878-1.0676,7.7683,1.2674,1.7324,2.1511,1.8638,6.3253.1448,8.4829-1.8891,2.3712-4.3195,3.7401-6.6938,3.5656Z"/>
        <path class="cls-2" d="m64.5099,290.7512c-.1277.2667-.1884.6204-.3975.7815-.3932.303-.9486.2477-1.1999-.1337-2.0028-3.0392-3.9723-6.1008-5.9137-9.1796-.2464-.3908-.1535-.978.2899-1.1975.3509-.1737.8946-.2173,1.254-.0729,2.4844.9982,6.1838,7.1339,5.9673,9.8021Z"/>
        <path class="cls-2" d="m64.0495,340.8178c-.2583.6651-.7949.8946-1.4298.7588-.6536-.1398-1.0588-.6355-.9469-1.3066.1222-.7328.7111-.9247,1.3662-.7357.6114.1764,1.0533.5591,1.0104,1.2835Z"/>
        <path d="m292.2635,130.8212c3.7875-.3522,7.6267.3711,11.3778,1.7629,2.4764.9188,4.6102,2.3074,6.3171,4.3126,5.1354,6.0327,3.8225,13.7881-2.9789,17.8665-1.5772.9457-3.2391,1.6868-5.0084,2.126-7.101,1.7626-14.2604,2.8836-21.6083,1.8341-4.3204-.6171-8.1218-2.2692-11.4255-5.1761-4.458-3.9226-5.1676-8.7775-1.58-13.5475,2.9289-3.8941,7.0937-6.1229,11.6562-7.5153,4.2256-1.2895,8.5832-1.9242,13.2501-1.6632Z"/>
        <path d="m259.0612,355.7382c.3917-2.1464.746-4.1852,1.1424-6.2158.1734-.8887.2751-1.8427.6825-2.6248,1.271-2.4401,11.3155-4.5118,13.535-2.7919,1.4014,1.0859,1.1164,2.3618-.0013,3.5104-.9038.9288-2.1388,1.0782-3.3417,1.2705-1.3553.2167-2.7045.4621-3.8145,1.3575-1.0342.8343-1.5076,1.9049-1.1495,3.2189.3289,1.2073,1.3139,1.6344,2.431,1.6944,1.6651.0895,3.3414.0026,5.0024.1294,1.2418.0949,2.5034.4693,2.6604,1.983.1282,1.2357-.8898,1.8265-1.7749,2.4273-1.3029.8842-2.8763.9155-4.3109,1.3823-2.9309.9538-4.2949,2.6355-3.9475,4.7753.3471,2.1383,2.2316,3.1837,5.3953,2.8476,1.8058-.1919,3.5761-.7471,5.4197-.5334,1.2415.1439,2.4888.3925,2.8162,1.849.322,1.4325-.546,2.4385-1.7151,2.871-4.0085,1.483-8.1719,2.3509-12.4622,2.0577-2.1648-.1479-3.5904-1.4576-4.0768-3.679-.5442-2.485-1.1463-4.9573-1.7441-7.5246-1.7733.5154-1.9392,2.0396-2.5958,3.1398-2.7594,4.6235-6.731,7.815-11.7728,9.5113-5.5425,1.8649-11.5581.2047-14.8982-4.0123-3.5798-4.5194-3.8707-9.4946-1.1857-14.5077,2.958-5.523,6.7565-10.115,13.6395-10.7939,5.4045-.533,9.842,1.0845,13.2709,5.4162.818,1.0333,1.1701,2.4794,2.7958,3.2417Zm-6.951,5.0491c.0591-4.6474-2.1411-7.5528-6.1437-8.1124-6.636-.9278-13.3871,5.5361-12.7439,12.2017.5276,5.4685,5.5839,8.7723,10.8257,7.0734,5.5538-1.8,7.9856-5.1671,8.0618-11.1628Z"/>
        <path d="m219.0862,361.8432c0-1.9697.1697-3.958-.044-5.9042-.253-2.3041-1.2624-4.082-4.0887-3.804-.5863.0577-1.215-.0488-1.7901-.2049-.9327-.2531-1.6486-.8492-1.7938-1.8428-.181-1.2386.533-2.125,1.6124-2.43,1.5931-.4502,3.2666-.6072,4.8938-.9469,3.6038-.7522,7.2473-.5825,10.8812-.4587,1.3593.0463,2.9305.2545,3.1741,1.9658.2202,1.5466-1.1295,2.0616-2.3193,2.3046-2.845.5809-3.7753,2.3844-4.2255,5.1143-.6236,3.7815-.5886,7.5567-.6476,11.3378-.0489,3.1361-.85,5.999-2.5031,8.6203-3.3463,5.3062-13.0128,5.4158-16.5435.222-.8062-1.1859-1.109-2.4831-.9449-3.8876.1655-1.4157.5706-2.8109,2.1427-3.1473,1.5529-.3323,2.0032,1.0104,2.5039,2.1199.1871.4146.335.8491.5471,1.25.8366,1.581,2.0843,2.6999,3.9329,2.6292,2.0044-.0766,3.3373-1.3188,4.1611-3.0849,1.4683-3.1477,1.1245-6.5289,1.0512-9.8527Z"/>
        <path d="m199.1228,396.2016c.0931-8.3295,7.7245-15.1495,16.0471-14.3424,1.8519.1796,3.5551.768,5.0416,1.8973.8928.6782,1.545,1.5475,1.1178,2.7284-.4338,1.199-1.4747,1.449-2.6101,1.2658-.8955-.1444-1.7896-.3512-2.6539-.6258-5.9333-1.8856-10.9026,4.4599-10.8982,9.2357.0034,3.6834,3.7303,6.4848,8.0248,6.2824,1.9673-.0927,3.8362-.9868,5.8451-.6976.939.1352,1.8071.4546,2.1121,1.4461.2481.8064-.1767,1.4952-.7547,2.0161-5.2,4.6857-18.1036,3.2243-20.476-3.8489-.5933-1.7689-.7993-3.5317-.7956-5.3572Z"/>
        <path d="m170.9212,421.3771c-.0662.7319-.0949,1.33-.1799,1.9199-.1125.7808-.4459,1.5175-1.2876,1.6117-.8349.0935-1.3542-.5442-1.6485-1.2665-.223-.5474-.4619-1.1383-.471-1.7134-.0271-1.711-.7419-4.3232,1.4543-4.5421,2.4721-.2465,1.7512,2.5114,2.1326,3.9904Z"/>
        <path d="m216.0218,426.8117c-.0094.8879-.1517,1.6362-1.0597,1.8042-.627.1161-1.1392-.2608-1.5185-.7448-1.0513-1.3413-1.5839-5.1452-.7693-5.8945.2603-.2395.9287-.3922,1.1785-.2292,1.8632,1.2155,1.6283,3.361,2.169,5.0643Z"/>
        <path d="m186.2638,425.0613c-.1014.923.1464,2.0522-1.0133,2.2842-1.1321.2265-1.4969-.811-1.7453-1.6451-.5059-1.6984-1.2141-3.4265-.3023-5.1981.2182-.424.762-.5689,1.1631-.2398,1.531,1.2561,1.6134,3.1003,1.8979,4.7988Z"/>
        <path d="m63.6017,127.9957c.8936,4.2064-.6552,7.8692-.7325,11.6171-.0351,1.702-1.448,4.4528.4623,4.9139,2.2701.548,1.7818-2.5524,2.4194-4.0479,1.4888-3.4924,2.7055-7.0999,4.1128-10.6286.4467-1.1199,1.1152-2.158,1.7438-3.1963.4156-.6865,1.0596-1.141,1.8995-.8439.8145.2881,1.1493,1.056,1.1014,1.8254-.0652,1.0469-.2791,2.0966-.5383,3.1174-2.3173,9.1249-3.5254,18.4663-5.4235,27.6726-.0611.2963-.098.601-.1107.9033-.0261.6233.0434,1.2488.8003,1.3704.4911.0789.8564-.2476,1.0455-.6996.2341-.5597.474-1.1223.641-1.7038,1.5513-5.4018,3.4925-10.6998,4.3393-16.2901.1137-.7504.2859-1.4937.4638-2.2324.5616-2.3327,1.5331-4.6179,4.1852-4.7776,2.3344-.1406,3.8888,1.7838,4.7915,3.7132,4.3507,9.2991,10.4277,17.6422,14.5881,27.0699,3.9293,8.904,8.3392,17.584,10.4717,27.1696.2298,1.0328.5733,2.0554.9893,3.0292,5.1341,12.0161,6.4298,24.5939,5.5045,37.4937-.163,2.2724.1858,4.5158.0116,6.8141-.7383,9.7415-6.2186,16.6672-13.3369,22.4535-4.1452,3.3696-9.3073,3.6652-14.3619,2.3343-8.0667-2.124-15.485-5.712-21.2215-11.8776-6.1987-6.6623-12.3658-13.4337-15.0612-22.5169-.6905-2.3268-1.5459-4.5947-1.9652-7.003-.5992-3.442-1.0791-6.9246-1.9847-10.289-1.3927-5.1739-2.2951-10.3027-1.8734-15.7311.423-5.4456-.6737-10.8957-.595-16.3846.07-4.8769.4802-9.7148.8965-14.5551.3972-4.6172,2.0033-8.8909,4.4913-12.7922,1.409-2.2094,2.3433-4.5561,3.0205-7.0846,1.4186-5.2967,3.2917-10.439,6.0426-15.2142.7316-1.27,1.1238-2.8435,3.183-3.6295Zm19.0562,42.7868c-.0294-.3026-.0302-.6113-.0934-.9066-.2431-1.1358-.0704-3.0156-1.5665-2.836-1.777.2134-1.2896,2.043-1.1088,3.3778.0406.2998.1134.5999.2104.8866.2435.7197.4755,1.6141,1.3977,1.5492,1.2577-.0884,1.1518-1.161,1.1606-2.071Z"/>
        <path d="m197.2166,296.2167c.1766,2.5912-.5105,5.0568-1.1809,7.518-.25.9177-.8598,1.73-1.8964,1.5657-1.0456-.1657-1.3974-1.1633-1.3032-2.0847.3499-3.4225.7584-6.8407,1.2431-10.2465.1249-.8776.5974-1.8303,1.6828-1.8239,1.1647.0068,1.362,1.0292,1.4348,1.9237.0848,1.0429.0198,2.098.0198,3.1477Z"/>
        <path d="m200.9565,301.2147c.1596-1.0296.2769-2.3879.6027-3.6941.2545-1.0204.7199-2.1338,2.0918-1.9109,1.2738.2069,1.5295,1.3252,1.6511,2.3993.2644,2.3344-.57,4.4561-1.3742,6.572-.2716.7145-.6714,1.4733-1.5712,1.3391-.8477-.1264-1.1661-.892-1.2442-1.6765-.0893-.8974-.0972-1.8029-.156-3.0289Z"/>
        <path d="m249.0742,291.959c.6836.0612,1.1368.5172,1.3147,1.0778.7687,2.4223,1.4949,4.8596,2.1638,7.3112.2076.7609-.059,1.5329-.7912,1.932-.9872.538-1.7929-.0192-2.3274-.7601-1.8617-2.5809-2.2871-5.4824-1.6389-8.556.1325-.6284.5863-1.0126,1.2791-1.0049Z"/>
        <path d="m242.7855,296.5104c1.015.2033,1.5012.8091,1.6527,1.5458.5111,2.4856,1.0249,4.9778,1.3494,7.4917.1802,1.396-.6947,1.9845-1.9673,1.3056-2.3399-1.2483-3.6624-7.8357-2.0087-9.8086.2505-.2989.7295-.4062.9739-.5345Z"/>
        <path d="m239.3104,304.3137c-.0662.4362-.1202,1.0277-.2526,1.6012-.1445.6261-.5708,1.0986-1.22,1.0404-.3747-.0336-.828-.352-1.0479-.6764-.3236-.4774-.5603-1.0565-.6751-1.6244-.2929-1.4493-.669-2.9736.7202-4.0993.2538-.2056.9235-.1947,1.2177-.0026,1.3135.8576,1.1132,2.2984,1.2577,3.7613Z"/>
        <path d="m209.9183,301.6929c-1.4236-.264-1.5465-1.3432-1.4933-2.3986.0597-1.1831.145-2.6215,1.7715-2.5938,1.3374.0228,1.5325,1.2657,1.5135,2.3317-.0221,1.2384-.3372,2.384-1.7917,2.6607Z"/>
        <path d="m234.5117,305.1168c-.1068.8256-.3442,1.6627-1.2153,1.6528-1.2801-.0145-1.7338-1.0213-1.7663-2.144-.023-.7952.397-1.5292,1.2484-1.5582,1.3701-.0466,1.6544.985,1.7332,2.0493Z"/>
        <path d="m216.0331,298.7021c.7041.1312.9702.5998.8704,1.2549-.0715.4695-.414.8253-.8946.7869-.7198-.0577-.9625-.5934-.8684-1.2433.0679-.4695.4016-.7483.8926-.7985Z"/>
        <path class="cls-1" d="m252.1102,360.7872c-.0762,5.9957-2.508,9.3627-8.0618,11.1628-5.2418,1.6989-10.2981-1.6048-10.8257-7.0734-.6431-6.6657,6.108-13.1295,12.7439-12.2017,4.0025.5596,6.2028,3.4649,6.1437,8.1124Z"/>
        <path class="cls-2" d="m82.6614,170.786c-.0123.9066.0936,1.9792-1.1641,2.0676-.9222.0648-1.1542-.8296-1.3977-1.5492-.097-.2867-.1698-.5868-.2104-.8866-.1808-1.3348-.6682-3.1644,1.1088-3.3778,1.496-.1796,1.3233,1.7002,1.5665,2.836.0632.2953.064.604.0969.91Z"/>
      </g>
    </g>
  </g>
</svg>