<?xml version="1.0" encoding="UTF-8"?>
<svg id="Layer_2" data-name="Layer 2" xmlns="http://www.w3.org/2000/svg" viewBox="0 0 341.2672 412.0154">
  <defs>
    <style>
      .cls-1 {
        fill: #fff;
      }
    </style>
  </defs>
  <g id="katman_1" data-name="katman 1">
    <g id="Hq31sv">
      <g>
        <path d="m233.5597,284.585c2.9149-7.5548,7.2291-13.1407,15.0746-15.4026,6.2123-1.7911,12.0129-.9149,16.1533,3.8613,4.6545,5.3692,9.0084,11.2161,12.3507,17.4662,11.3519,21.228,17.3914,44.0878,18.9137,68.0726.329,5.184-.1797,10.5452-1.1521,15.6633-2.3594,12.4171-8.5239,18.3332-22.4155,20.6425-4.4369.7375-9.0668.2704-13.6.5124-.7938.0423-2.0857.7382-2.2359,1.3544-2.2829,9.3699-9.0828,13.1658-17.7948,14.4606-10.9036,1.6206-21.7835.4643-32.6411-.7034-21.995-2.3654-44.0415-4.3603-65.9555-7.3291-12.3197-1.669-24.5249-1.5515-36.8436-1.1922-21.0981.6154-41.3479-3.8394-60.9998-11.1831-2.8553-1.067-5.3728-3.1249-7.8933-4.9375-.6046-.4348-.5955-1.7231-.8686-2.6189.9161-.0439,2.0987-.4808,2.7058-.0691,4.6013,3.1204,7.8461,1.6519,12.3547-1.3688,16.1464-10.8178,33.9122-14.19,52.8582-8.2996,2.2814.7093,2.4383.0895,2.3303-1.8642-.5116-9.2535.3319-18.3535,3.149-27.2432.2475-.781-.3333-2.0465-.8933-2.8251-3.2797-4.5596-5.4835-9.3844-4.7962-15.213.7277-6.1718,4.9546-10.9124,11.0552-12.0329,1.1502-.2113,2.156-.0512,1.697-1.8569-3.1673-12.4603-.9074-24.5224,3.2979-36.2637,3.2647-9.1152,7.4944-17.8884,10.6646-27.0323,2.1697-6.2582,3.2493-12.8938,4.8306-19.3571.4177-1.7071.1565-2.7112-1.8639-3.2861-1.0903-.3103-1.8264-1.8652-2.7224-2.8586,1.0183-.6406,1.9675-1.6054,3.0721-1.8406,1.4175-.3018,1.5532-.75,1.1833-2.0086-3.9624-13.4837-11.3003-23.8461-25.555-27.8844-3.0077-.8521-6.3456-2.9175-8.9247-2.2104-2.401.6583-4.0109,4.2517-5.939,6.5779-11.8427,14.2882-32.2509,19.3883-49.1852,11.5585C15.3902,195.1213,1.4025,173.1033.1002,142.8725c-.7472-17.3459,2.7371-34.0802,8.6734-50.1613,8.9415-24.2222,22.0205-46.0379,40.3278-64.5288C65.5251,11.594,85.4616,2.77,108.5532.6469c9.9047-.9106,19.7895-1.0625,29.5891.8894,13.426,2.6741,24.7239,9.6358,35.3493,17.8805,1.4355,1.1139,2.783,2.3421,4.158,3.5328,1.3747,1.1904,2.6005,3.0731,4.1424,3.3763,1.1187.22,2.619-1.683,3.997-2.5646,3.634-2.3249,8.5466-1.6063,11.2843,1.6786.4019.4822.8611,1.4277.6526,1.7906-.331.5763-1.1724,1.0991-1.8521,1.178-.9677.1123-1.9811-.2426-2.981-.3156-1.1951-.0872-2.4778-.3679-3.5734-.0502-1.2037.349-2.2376,1.2836-3.3455,1.963.7327.8038,1.4149,1.6613,2.2055,2.4033,11.5476,10.8375,24.1845,20.13,39.7089,24.1703,8.4478,2.1986,17.2867,2.9822,25.988,4.1024,26.839,3.455,45.8866,17.6422,57.653,41.7665,3.1757,6.511,4.3129,13.6404,4.6715,20.8647.2528,5.0911.257,5.0522,5.1783,5.8567,7.05,1.1525,12.7516,4.5458,16.4583,10.7241,4.6284,7.7148,4.6054,15.5718-.2708,23.1829-5.2506,8.1956-13.258,10.3437-22.2186,8.8041-4.0376-.6938-7.782-3.0469-11.6958-4.5526-.712-.2739-1.9512-.4545-2.3561-.0645-13.4322,12.9356-30.1108,19.5245-47.7735,23.6384-12.5646,2.9265-25.4646,4.383-38.1522,6.8221-7.717,1.4835-15.4269,3.2289-22.9165,5.5713-3.5119,1.0984-6.7051,3.6285-9.6321,6.0137-1.5056,1.2269-2.4319,3.4574-3.0539,5.4143-1.2171,3.8291-1.0169,3.7581,2.7172,4.8488,1.0543.3079,2.6419,1.6661,2.5562,2.3682-.1516,1.2418-1.2161,2.5592-2.2406,3.453-.9649.8419-2.3708,1.1783-3.5826,1.7371.8302,1.1407,1.767,2.2192,2.4741,3.4317,7.0196,12.0367,13.9861,24.1044,21.0273,36.1284.4695.8017,1.4623,1.9204,2.1487,1.8778,9.7265-.6038,17.0299,4.1332,23.6085,10.4904,1.7342,1.6759,3.2764,3.5505,5.0828,5.5263Zm-38.0487-89.1072c-.4964-.15-1.0548-.3626-1.6323-.487-20.7756-4.475-36.3252-15.953-46.5543-34.6272-.2476-.452-1.2226-.6174-1.8848-.6977-.6101-.0739-1.2559.1473-1.886.2385.0017-.7676-.3168-1.7935.059-2.2591,1.8673-2.3134,3.8152-4.5872,5.9705-6.6257.5857-.554,1.9909-.2414,3.02-.3265-.2799.9041-.2912,2.0916-.8901,2.659-1.7851,1.6913-1.2028,3.0996.0306,4.7004,1.7872,2.3197,3.4432,4.7406,5.2258,7.064,14.1761,18.4771,33.2045,26.9103,56.172,26.1378,16.7152-.5622,33.1179-3.8175,48.9967-9.0328,7.6216-2.5032,15.1144-5.7746,22.1374-9.6543,21.9335-12.1166,28.649-31.7625,25.4525-54.8736-2.7254-19.7047-14.4682-33.3088-31.1258-43.1056-10.7405-6.3169-22.7622-8.0524-34.8889-9.0475-13.4332-1.1023-25.8729-5.0607-37.5021-11.848-10.6619-6.2227-19.5761-14.5843-28.5867-22.8425-6.8717-6.2978-14.288-11.7727-22.2912-16.6226-12.3669-7.4942-25.7285-8.6715-39.6962-8.1896-26.6992.9211-48.7768,11.4653-66.7621,30.9992-11.7397,12.7506-20.7093,27.3187-28.2876,42.8251-10.2526,20.9784-15.9408,43.0052-14.3224,66.4444,1.7262,24.9988,14.0178,43.5397,36.3358,54.8732,20.4537,10.3868,43.0049,1.5886,51.2787-19.3973,2.9977-7.6034,5.0018-15.5392,4.4652-23.6562-.8443-12.7731-2.5126-25.4912-3.7963-38.2362-.578-5.7381-1.0697-11.4848-1.6006-17.2277.3149-.0824.6297-.1648.9446-.2472.5236,1.1251,1.2202,2.2029,1.5427,3.383,2.1778,7.9688,4.7469,15.8687,6.3055,23.9611,3.593,18.655,4.7847,37.3116-2.8605,55.4318-.6011,1.4247-.1841,1.6938,1.1592,1.8287,2.609.2622,5.2059.6597,7.7999,1.0533,17.1226,2.5986,28.6177,13.2288,32.359,31.8262.1186.5896,1.2827,1.4119,1.9297,1.3858,9.7911-.3942,19.5764-.9307,29.3655-1.3829,1.5896-.0734,2.2522-.5733,2.2832-2.3208.1413-7.9604,4.3217-13.5128,11.0269-17.2291,3.4136-1.8919,7.1169-3.261,10.7076-4.8747Zm33.9446,93.7602c-3.5398-4.7992-7.9371-9.4734-13.8382-12.4656-3.6663-1.8591-7.4992-2.9494-11.6864-2.0471-5.731,1.2349-8.6633,5.6633-11.3878,10.1611-6.3829,10.5377-7.776,22.3114-7.0296,34.2086.7895,12.5838,2.5544,25.1096,4.0202,37.6459.5126,4.3839-.9056,5.7011-5.2938,4.5934-8.0102-2.022-16.0264-4.0261-24.0779-5.8728-1.177-.27-2.7378.0466-3.8209.6399-5.0627,2.7729-10.193,4.9111-16.164,3.6271-.6646-.1429-1.5561.1485-2.177.5171-7.7434,4.5954-17.9514.3154-19.5951-8.676-.5918-3.2376-1.6953-4.2361-4.7208-4.3922-1.4636-.0755-1.8443.0876-2.132,1.4886-1.6963,8.2611-2.5464,16.5519-1.6062,24.9883.1821,1.6343.7998,2.1267,2.3494,2.4386,8.2587,1.6619,10.0153,3.4706,11.5128,11.7673.3556,1.9701.5391,4.0314.3793,6.0168-.1511,1.8773.6131,2.1433,2.1886,2.3087,29.425,3.0905,58.8242,6.4476,88.2776,9.2332,8.3742.792,16.9688.5761,25.341-.3161,8.011-.8538,10.837-4.2169,11.8385-12.2446,3.1994-25.6456,1.2874-50.8036-8.0198-75.1232-.343-.8962-1.8216-1.8994-2.7945-1.924-5.8443-.1484-11.6955-.0073-17.5442-.0159-.6961-.001-1.3918-.3223-2.0876-.4951.497-.5705.8847-1.4016,1.5108-1.6645,2.2217-.9327,4.4764-2.1342,6.808-2.3783,3.7537-.393,7.5786-.1055,12.0394-.1055-2.6445-5.2453-5.0166-10.1256-7.6016-14.8904-.3924-.7234-1.8084-1.3465-2.6914-1.2755-6.2252.501-12.4311,1.2363-18.6523,1.7956-1.2894.1159-2.617-.192-3.9269-.3046,1.0468-.9779,2.0663-1.988,3.1558-2.9159.3672-.3127.8945-.4917,1.3783-.6051,5.3526-1.2552,10.7111-2.4855,16.0483-3.7179Zm-66.8221,60.9074c6.5053,1.4458,12.8054,2.7701,19.0609,4.2792,2.0813.502,1.3726-.7616,1.2755-1.6224-.9847-8.7322-2.122-17.449-2.9762-26.1936-1.2593-12.8924-.876-25.6829,4.0298-37.9005,2.8165-7.0142,6.6407-13.4643,13.2543-17.6343,1.7458-1.1007,1.6628-1.6228.6608-3.3011-7.7059-12.9071-15.2282-25.9238-22.878-38.8648-.3887-.6576-1.4288-1.3285-2.1618-1.3243-10.6965.0614-21.3921.2892-32.0885.3329-1.7612.0072-2.0602.5495-2.3325,2.169-.952,5.6614-1.6324,11.4607-3.4407,16.8646-2.8126,8.405-6.5089,16.5117-9.7516,24.7759-5.6548,14.4117-9.3641,29.0449-5.1393,44.6265.7231,2.6667-.1086,3.2617-3.1375,2.9038-6.0076-.7098-10.2795,2.6603-10.8435,8.6702-.4819,5.1348,1.1896,9.5205,4.8256,13.1896,3.1235,3.1519,7.0902,3.5138,10.6159.7919,1.1931-.921,2.158-2.1382,3.3534-3.0555.6311-.4843,1.5338-.6146,2.3139-.9047-.0451.8637.22,1.9365-.1944,2.5512-1.1689,1.7337-2.6316,3.2674-3.9468,4.9054-.4676.5824-1.1306,1.2007-1.2167,1.8659-.6322,4.8835,3.4628,9.7776,8.2806,10.0309,5.1356.2699,7.4689-2.4051,7.5248-8.6032.0155-1.7157-.0456-3.4457.1663-5.1393.0861-.6885.8064-1.2977,1.2381-1.9429.6187.4485,1.6315.7891,1.789,1.364.736,2.6859,1.5647,5.4158,1.7377,8.1691.2184,3.4746.3052,3.7498,3.8751,2.8218,9.678-2.5156,15.9702-10.4078,14.9543-20.3225-.8397-8.1949-2.8474-16.2818-4.5392-24.3744-1.8612-8.9024-4.0395-17.7494-3.3273-26.9568.2673-3.4548.9422-6.7981,3.3439-10.4494.1756,1.3014.2817,1.7642.2944,2.2295.2965,10.8491,1.8359,21.4874,4.6559,31.9976,2.1681,8.0809,4.0401,16.2757,5.4152,24.5246,1.1765,7.0578-.2273,13.8707-4.6915,19.5262Zm127.5843,12.8011c.0798-12.3428-4.254-35.3884-8.4775-46.1362-.3021-.7687-1.5019-1.7198-2.2459-1.6879-3.4157.1463-6.815.6438-10.2268.939-.782.0677-1.5902-.1661-2.3863-.2611.4783-.7107.8036-1.8025,1.4612-2.0665,2.9623-1.1895,5.9632-2.3942,9.0635-3.0841,1.6875-.3756,2.3566-.5347,1.5271-2.2941-1.8067-3.8321-3.4451-7.7481-5.3902-11.5067-.4034-.7794-1.9079-1.5403-2.7878-1.4239-3.3874.4478-6.7222,1.2822-10.0893,1.9035-.6115.1129-1.2826-.0977-1.9262-.159.3149-.5792.483-1.4288.9691-1.693,2.7214-1.4793,5.4026-3.2127,8.3286-4.078,2.327-.6882,2.2323-1.3962,1.1416-2.9624-2.0737-2.9778-3.9249-6.143-6.2569-8.902-6.0679-7.179-14.6287-6.9417-20.2632.5935-1.7813,2.3823-2.7697,5.3425-4.3208,7.9178-.8507,1.4124-.7029,2.3598.103,3.7765,11.6126,20.4135,18.2317,42.4457,19.9679,65.7849.7147,9.6077-.14,19.3408-.4668,29.0106-.0712,2.1071.3763,2.9724,2.5282,2.8755,3.6295-.1635,7.3437.2312,10.882-.3978,12.1262-2.1554,16.037-6.461,17.9855-17.2629.6247-3.4633.7054-7.0248.8799-8.8857Zm-242.1671,24.621c15.1657,4.2104,29.8186,7.4982,45.2848,8.7107-2.9538-6.5905-5.5226-12.8197,1.5103-18.4818-17.0897-3.4251-31.9104,1.4811-46.7951,9.7711Zm267.3837-253.0305c7.4215,1.9309,12.221,6.0763,14.9563,12.3452,3.0405,6.9684.3987,12.8136-4.9991,18.42,7.2362-2.4835,11.1691-10.303,9.4965-17.5015-1.878-8.0825-10.7755-14.4892-19.4537-13.2637Z"/>
        <path class="cls-1" d="m195.511,195.4778c-3.5907,1.6137-7.294,2.9828-10.7076,4.8747-6.7051,3.7163-10.8856,9.2686-11.0269,17.2291-.031,1.7476-.6936,2.2474-2.2832,2.3208-9.789.4522-19.5743.9888-29.3655,1.3829-.6469.026-1.811-.7962-1.9297-1.3858-3.7412-18.5975-15.2363-29.2276-32.359-31.8262-2.594-.3937-5.1909-.7912-7.7999-1.0533-1.3433-.135-1.7603-.404-1.1592-1.8287,7.6452-18.1202,6.4535-36.7768,2.8605-55.4318-1.5586-8.0924-4.1278-15.9923-6.3055-23.9611-.3225-1.1801-1.0192-2.2579-1.5427-3.383-.3149.0824-.6297.1648-.9446.2472.5309,5.7428,1.0227,11.4896,1.6006,17.2277,1.2837,12.745,2.952,25.463,3.7963,38.2362.5365,8.117-1.4676,16.0528-4.4652,23.6562-8.2738,20.9859-30.825,29.7841-51.2787,19.3973-22.318-11.3336-34.6096-29.8744-36.3358-54.8732-1.6185-23.4392,4.0698-45.466,14.3224-66.4444,7.5783-15.5064,16.5478-30.0744,28.2876-42.8251C66.8603,17.5033,88.9379,6.9592,115.6371,6.0381c13.9676-.4819,27.3293.6954,39.6962,8.1896,8.0033,4.8499,15.4196,10.3248,22.2912,16.6226,9.0107,8.2582,17.9248,16.6198,28.5867,22.8425,11.6293,6.7872,24.0689,10.7457,37.5021,11.848,12.1267.9951,24.1483,2.7306,34.8889,9.0475,16.6575,9.7969,28.4004,23.4009,31.1258,43.1056,3.1965,23.1111-3.519,42.7571-25.4525,54.8736-7.023,3.8797-14.5159,7.151-22.1374,9.6543-15.8788,5.2153-32.2815,8.4706-48.9967,9.0328-22.9675.7725-41.9959-7.6607-56.172-26.1378-1.7826-2.3235-3.4385-4.7443-5.2258-7.064-1.2334-1.6008-1.8157-3.0092-.0306-4.7004.5988-.5674.6102-1.7549.8901-2.659-1.0291.0851-2.4343-.2275-3.02.3265-2.1552,2.0385-4.1032,4.3123-5.9705,6.6257-.3758.4655-.0574,1.4915-.059,2.2591.6301-.0912,1.2759-.3125,1.886-.2385.6622.0802,1.6372.2457,1.8848.6977,10.2291,18.6743,25.7787,30.1522,46.5543,34.6272.5775.1244,1.136.337,1.6323.487ZM45.5739,95.2539c-.8548-.9195-1.4021-1.4819-1.9204-2.0699-5.6428-6.4014-7.1658-6.4438-11.4146,1.1171-9.6233,17.1249-13.8617,35.6768-12.9605,55.2489.4988,10.8344,4.1552,20.7841,11.3332,29.1102,9.6695,11.2161,26.4264,14.8139,38.5505,8.2929,9.5754-5.1503,16.1873-13.0265,18.2177-23.7253,5.7371-30.2299-4.8497-55.557-24.7193-77.6775-2.9578-3.2928-7.1355-5.5761-10.9758-7.961-2.8226-1.753-4.772-.6798-5.5631,2.5566-.2858,1.1695-.5016,2.3856-.5234,3.5845-.0669,3.6766-.0243,7.3553-.0243,11.5235Zm137.9666-.6788c-.0527,0-.1054,0-.1581-.0001,0,2.8206-.2883,5.6847.128,8.4424.1929,1.2778,1.7585,2.3484,2.7017,3.5129,1.0231-.9616,2.0927-1.8804,3.0423-2.9098.3022-.3276.3722-.9444.4013-1.4375.3195-5.4243.7049-10.8476.8592-16.2773.058-2.0413-.863-3.8748-3.2624-3.9981-2.5988-.1336-3.5434,1.7331-3.67,3.9053-.1697,2.9117-.042,5.8407-.042,8.7623Z"/>
        <path class="cls-1" d="m229.4555,289.238c-5.3372,1.2325-10.6957,2.4627-16.0483,3.7179-.4838.1135-1.0111.2924-1.3783.6051-1.0895.9279-2.109,1.938-3.1558,2.9159,1.31.1126,2.6375.4206,3.9269.3046,6.2212-.5593,12.4271-1.2946,18.6523-1.7956.883-.0711,2.2989.5521,2.6914,1.2755,2.585,4.7648,4.9571,9.6451,7.6016,14.8904-4.4608,0-8.2857-.2875-12.0394.1055-2.3317.2441-4.5863,1.4456-6.808,2.3783-.6261.2629-1.0137,1.094-1.5108,1.6645.6958.1729,1.3915.4941,2.0876.4951,5.8488.0086,11.7-.1325,17.5442.0159.9729.0247,2.4515,1.0278,2.7945,1.924,9.3072,24.3196,11.2192,49.4776,8.0198,75.1232-1.0015,8.0278-3.8275,11.3909-11.8385,12.2446-8.3722.8922-16.9669,1.108-25.341.3161-29.4534-2.7856-58.8526-6.1427-88.2776-9.2332-1.5755-.1655-2.3397-.4314-2.1886-2.3087.1598-1.9854-.0237-4.0467-.3793-6.0168-1.4975-8.2967-3.2541-10.1054-11.5128-11.7673-1.5496-.3119-2.1673-.8043-2.3494-2.4386-.9402-8.4365-.0901-16.7272,1.6062-24.9883.2877-1.401.6684-1.5641,2.132-1.4886,3.0255.1561,4.129,1.1546,4.7208,4.3922,1.6436,8.9915,11.8517,13.2714,19.5951,8.676.621-.3686,1.5124-.66,2.177-.5171,5.971,1.284,11.1013-.8543,16.164-3.6271,1.0831-.5932,2.6439-.9099,3.8209-.6399,8.0515,1.8467,16.0677,3.8508,24.0779,5.8728,4.3882,1.1077,5.8064-.2094,5.2938-4.5934-1.4658-12.5363-3.2307-25.0621-4.0202-37.6459-.7464-11.8972.6467-23.671,7.0296-34.2086,2.7244-4.4978,5.6568-8.9262,11.3878-10.1611,4.1873-.9023,8.0201.188,11.6864,2.0471,5.9011,2.9923,10.2984,7.6664,13.8382,12.4656Z"/>
        <path class="cls-1" d="m162.6334,350.1454c4.4642-5.6555,5.868-12.4684,4.6915-19.5262-1.375-8.2489-3.247-16.4436-5.4152-24.5246-2.82-10.5103-4.3594-21.1485-4.6559-31.9976-.0127-.4653-.1188-.928-.2944-2.2295-2.4017,3.6513-3.0767,6.9946-3.3439,10.4494-.7123,9.2074,1.4661,18.0544,3.3273,26.9568,1.6919,8.0926,3.6996,16.1796,4.5392,24.3744,1.0159,9.9147-5.2763,17.8069-14.9543,20.3225-3.5699.9279-3.6567.6527-3.8751-2.8218-.173-2.7533-1.0017-5.4832-1.7377-8.1691-.1576-.5749-1.1703-.9155-1.789-1.364-.4317.6452-1.152,1.2544-1.2381,1.9429-.2119,1.6936-.1509,3.4236-.1663,5.1393-.0559,6.1982-2.3892,8.8731-7.5248,8.6032-4.8179-.2532-8.9128-5.1473-8.2806-10.0309.0861-.6651.749-1.2835,1.2167-1.8659,1.3152-1.638,2.7779-3.1717,3.9468-4.9054.4144-.6147.1493-1.6875.1944-2.5512-.7801.2901-1.6828.4204-2.3139.9047-1.1954.9173-2.1603,2.1345-3.3534,3.0555-3.5257,2.7218-7.4924,2.36-10.6159-.7919-3.636-3.6692-5.3075-8.0548-4.8256-13.1896.564-6.0099,4.8359-9.3801,10.8435-8.6702,3.029.3579,3.8606-.2372,3.1375-2.9038-4.2248-15.5815-.5156-30.2147,5.1393-44.6265,3.2427-8.2642,6.939-16.3709,9.7516-24.7759,1.8083-5.4039,2.4887-11.2032,3.4407-16.8646.2723-1.6195.5713-2.1618,2.3325-2.169,10.6964-.0437,21.392-.2715,32.0885-.3329.733-.0042,1.7731.6667,2.1618,1.3243,7.6498,12.941,15.1721,25.9577,22.878,38.8648,1.0019,1.6783,1.0849,2.2003-.6608,3.3011-6.6136,4.17-10.4378,10.62-13.2543,17.6343-4.9058,12.2177-5.2891,25.0081-4.0298,37.9005.8542,8.7446,1.9915,17.4614,2.9762,26.1936.0971.8607.8058,2.1244-1.2755,1.6224-6.2555-1.509-12.5556-2.8334-19.0609-4.2792Z"/>
        <path class="cls-1" d="m290.2178,362.9465c-.1744,1.8609-.2551,5.4224-.8799,8.8857-1.9485,10.8019-5.8593,15.1075-17.9855,17.2629-3.5383.6289-7.2525.2343-10.882.3978-2.1518.0969-2.5994-.7684-2.5282-2.8755.3268-9.6698,1.1815-19.4029.4668-29.0106-1.7362-23.3391-8.3553-45.3714-19.9679-65.7849-.8059-1.4168-.9537-2.3642-.103-3.7765,1.5511-2.5753,2.5395-5.5356,4.3208-7.9178,5.6345-7.5352,14.1952-7.7725,20.2632-.5935,2.332,2.759,4.1832,5.9243,6.2569,8.902,1.0907,1.5662,1.1854,2.2742-1.1416,2.9624-2.926.8653-5.6072,2.5987-8.3286,4.078-.4861.2643-.6542,1.1138-.9691,1.693.6436.0613,1.3147.2719,1.9262.159,3.3671-.6213,6.702-1.4557,10.0893-1.9035.8799-.1164,2.3844.6445,2.7878,1.4239,1.9451,3.7586,3.5834,7.6746,5.3902,11.5067.8295,1.7594.1604,1.9185-1.5271,2.2941-3.1003.6899-6.1012,1.8946-9.0635,3.0841-.6576.264-.9829,1.3559-1.4612,2.0665.7961.0951,1.6043.3289,2.3863.2611,3.4118-.2953,6.811-.7928,10.2268-.939.744-.0319,1.9438.9192,2.2459,1.6879,4.2235,10.7477,8.5572,33.7933,8.4775,46.1362Z"/>
        <path class="cls-1" d="m48.0507,387.5675c14.8847-8.29,29.7054-13.1962,46.7951-9.7711-7.0329,5.662-4.464,11.8913-1.5103,18.4818-15.4663-1.2125-30.1192-4.5003-45.2848-8.7107Z"/>
        <path class="cls-1" d="m315.4344,134.537c8.6781-1.2255,17.5757,5.1812,19.4537,13.2637,1.6726,7.1985-2.2603,15.018-9.4965,17.5015,5.3978-5.6065,8.0396-11.4517,4.9991-18.42-2.7353-6.2688-7.5348-10.4143-14.9563-12.3452Z"/>
        <path d="m45.5739,95.2539c0-4.1682-.0426-7.8469.0243-11.5235.0218-1.1989.2375-2.4151.5234-3.5845.7911-3.2363,2.7404-4.3095,5.5631-2.5566,3.8402,2.3849,8.018,4.6682,10.9758,7.961,19.8696,22.1205,30.4564,47.4476,24.7193,77.6775-2.0304,10.6988-8.6423,18.575-18.2177,23.7253-12.124,6.5211-28.881,2.9232-38.5505-8.2929-7.178-8.3261-10.8344-18.2758-11.3332-29.1102-.9011-19.5721,3.3372-38.1239,12.9605-55.2489,4.2488-7.5609,5.7718-7.5185,11.4146-1.1171.5183.588,1.0656,1.1503,1.9204,2.0699Z"/>
        <path d="m183.5406,94.5751c0-2.9216-.1277-5.8506.042-8.7623.1266-2.1722,1.0713-4.0388,3.67-3.9053,2.3994.1233,3.3204,1.9568,3.2624,3.9981-.1543,5.4297-.5397,10.853-.8592,16.2773-.0291.4931-.0991,1.1099-.4013,1.4375-.9496,1.0294-2.0192,1.9482-3.0423,2.9098-.9432-1.1645-2.5088-2.235-2.7017-3.5129-.4164-2.7577-.128-5.6218-.128-8.4424.0527,0,.1054,0,.1581.0001Z"/>
      </g>
    </g>
  </g>
</svg>